<?xml version="1.0" standalone="no"?>
<!DOCTYPE svg PUBLIC "-//W3C//DTD SVG 1.1//EN" "http://www.w3.org/Graphics/SVG/1.1/DTD/svg11.dtd" >
<!--
2013-9-30: Created.
-->
<svg>
<metadata>
Created by iconfont
</metadata>
<defs>

<font id="iconfont" horiz-adv-x="1024" >
  <font-face
    font-family="iconfont"
    font-weight="500"
    font-stretch="normal"
    units-per-em="1024"
    ascent="896"
    descent="-128"
  />
    <missing-glyph />
    
    <glyph glyph-name="x" unicode="x" horiz-adv-x="1001"
d="M281 543q-27 -1 -53 -1h-83q-18 0 -36.5 -6t-32.5 -18.5t-23 -32t-9 -45.5v-76h912v41q0 16 -0.5 30t-0.5 18q0 13 -5 29t-17 29.5t-31.5 22.5t-49.5 9h-133v-97h-438v97zM955 310v-52q0 -23 0.5 -52t0.5 -58t-10.5 -47.5t-26 -30t-33 -16t-31.5 -4.5q-14 -1 -29.5 -0.5
t-29.5 0.5h-32l-45 128h-439l-44 -128h-29h-34q-20 0 -45 1q-25 0 -41 9.5t-25.5 23t-13.5 29.5t-4 30v167h911zM163 247q-12 0 -21 -8.5t-9 -21.5t9 -21.5t21 -8.5q13 0 22 8.5t9 21.5t-9 21.5t-22 8.5zM316 123q-8 -26 -14 -48q-5 -19 -10.5 -37t-7.5 -25t-3 -15t1 -14.5
t9.5 -10.5t21.5 -4h37h67h81h80h64h36q23 0 34 12t2 38q-5 13 -9.5 30.5t-9.5 34.5q-5 19 -11 39h-368zM336 498v228q0 11 2.5 23t10 21.5t20.5 15.5t34 6h188q31 0 51.5 -14.5t20.5 -52.5v-227h-327z" />
    

    
    <glyph glyph-name="gouwuche" unicode="&#983368;" d="M347.136 112.64q19.456 0 36.864-7.168t30.72-19.968 20.48-30.208 7.168-36.864-7.168-36.864-20.48-30.208-30.72-20.48-36.864-7.68q-20.48 0-37.376 7.68t-30.208 20.48-20.48 30.208-7.168 36.864 7.168 36.864 20.48 30.208 30.208 19.968 37.376 7.168zM773.12 110.592q19.456 0 37.376-7.168t30.72-19.968 20.48-30.208 7.68-36.864-7.68-36.864-20.48-30.208-30.72-20.48-37.376-7.68-36.864 7.68-30.208 20.48-20.48 30.208-7.68 36.864 7.68 36.864 20.48 30.208 30.208 19.968 36.864 7.168zM945.152 692.224q28.672 0 44.544-7.68t22.528-18.944 6.144-24.064-3.584-22.016-12.8-37.888-22.016-62.976-24.064-68.096-17.92-53.248q-13.312-40.96-33.792-56.832t-50.176-15.872l-34.816 0-66.56 0-87.04 0-95.232 0-253.952 0 15.36-92.16 516.096 0q49.152 0 49.152-41.984 0-20.48-9.728-35.328t-38.4-14.848l-49.152 0-95.232 0-117.76 0-119.808 0-98.304 0-56.32 0q-20.48 0-34.304 9.216t-23.04 24.064-14.848 32.256-8.704 32.768q-1.024 6.144-5.632 29.696t-11.264 58.88-14.848 78.848-16.384 87.552q-19.456 103.424-44.032 230.4l-76.8 0q-15.36 0-25.6 7.68t-16.896 18.432-9.216 23.04-2.56 22.528q0 20.48 13.824 33.792t37.376 13.312l22.528 0 20.48 0 25.6 0 34.816 0q20.48 0 32.768-6.144t19.456-15.36 10.24-19.456 5.12-17.408q2.048-8.192 4.096-23.04t4.096-30.208q3.072-18.432 6.144-38.912l700.416 0z"  horiz-adv-x="1024" />

    
    <glyph glyph-name="luxian" unicode="&#58918;" d="M273.089725-137.633269 64.10297-137.633269 64.10297 302.428306 568.266491 302.428306 568.266491 450.560064 385.685129 450.560064 672.759357 737.633269l287.073204-287.074228L777.253246 450.559041l0-357.11749L273.089725 93.441551 273.089725-137.633269zM105.035218-96.701021l127.122259 0L232.157477 134.374822l504.163521 0L736.320998 491.492312 861.013929 491.492312 672.759357 679.746884 484.504786 491.492312 609.198739 491.492312l0-229.995231L105.035218 261.497081 105.035218-96.701021z"  horiz-adv-x="1024" />

    
    <glyph glyph-name="baoming" unicode="&#58881;" d="M190.231087 349.16461l155.550729 78.723969c0 0 139.522684-166.099992 161.116491-408.477228l-119.148657-51.347458C387.74965-31.936107 228.564138 151.397385 190.231087 349.16461zM412.607804-46.581666 514.345929-7.82292 494.96758-95.021911ZM1019.738441-4.454196 1019.738441 771.330606c0 87.942935-61.703317 113.511263-95.000678 114.752534L67.67789 886.08314l0-1.702782C61.596382 883.653811 55.479057 882.448356 49.292148 880.195036-79.645456 833.475991 112.44856 439.838749 182.341397 369.874281l155.142429 78.29725c0 0-75.337849 297.626561-185.976692 401.599587l772.556271 0.01842c2.411933-0.089028 59.363016-3.121084 59.363016-78.45791l0.033769-776.776386c0-0.355087 1.347694-38.157042-22.198581-62.980403-14.607696-15.424294-36.489052-23.260773-65.035202-23.260773L153.494395-91.685933c-3.670599 0-90.000803 1.028423-90.000803 90.177835L63.493591 162.427602 27.180548 162.427602l0-163.936723c0-100.036367 82.624812-126.489856 126.312824-126.489856l742.733035 0c38.900985 0 69.647243 11.631922 91.419106 34.609239C1022.184143-56.936501 1019.843842-5.659651 1019.738441-4.454196zM576.439126 632.179382l296.52446 0 0-72.625064-296.52446 0 0 72.625064ZM434.186262 450.61928l435.764712 0 0-69.610404-435.764712 0 0 69.610404ZM582.4664 235.759771l284.46889 0 0-75.637678-284.46889 0 0 75.637678Z"  horiz-adv-x="1024" />

    
    <glyph glyph-name="wujiaoxing" unicode="&#58920;" d="M990.208 401.12c-5.632 17.408-20.608 30.144-38.72 32.768l-273.92 48.128-122.496 246.528c-8 16.384-24.704 26.752-43.008 26.752s-34.944-10.368-43.136-26.752l-122.432-246.528-273.856-49.792c-18.112-2.624-33.152-15.36-38.72-32.768-5.696-17.344-0.96-36.48 12.16-49.216l198.144-183.104-51.776-266.112c-3.072-17.984 4.224-36.352 19.136-46.976 8.32-6.144 18.24-9.28 28.224-9.28 7.616 0 15.36 1.856 22.336 5.504l249.92 122.112 248.32-122.112c6.976-3.648 14.72-5.504 22.4-5.504 9.92 0 19.84 3.136 28.16 9.28 14.784 10.624 22.336 28.992 19.2 46.976l-50.176 266.112 198.208 184.832C991.232 364.64 995.904 383.776 990.208 401.12z"  horiz-adv-x="1024" />

    
    <glyph glyph-name="feiji" unicode="&#59469;" d="M67.559699 208.073334 950.315814 728.088892 831.612295 37.181199 486.246453 114.95247 747.701187 487.435926 391.59063 135.418594ZM475.501738 61.740548 491.362984-124.226934 588.06542 37.181199Z"  horiz-adv-x="1024" />

    
    <glyph glyph-name="yingyongzongshu" unicode="&#59261;" d="M414.364429 716 163.921286 716C126.411643 716 96 685.590214 96 648.078714L96 448.571429C96 432.160786 109.303643 418.857143 125.714286 418.857143 142.124929 418.857143 155.428571 432.160786 155.428571 448.571429L155.428571 622.616357C155.428571 641.368857 170.633929 656.571429 189.383643 656.571429L388.903 656.571429C407.6555 656.571429 422.857143 641.366071 422.857143 622.616357L422.857143 423.097929C422.857143 404.345429 407.651786 389.142857 388.903 389.142857L185.142857 389.142857C168.732214 389.142857 155.428571 375.839214 155.428571 359.428571 155.428571 343.017929 168.732214 329.714286 185.142857 329.714286L414.364429 329.714286C451.874071 329.714286 482.285714 360.124071 482.285714 397.635571L482.285714 648.078714C482.285714 685.588357 451.875929 716 414.364429 716ZM860.078714 716 609.635571 716C572.125929 716 541.714286 685.590214 541.714286 648.078714L541.714286 397.6365C541.714286 360.125929 572.124071 329.714286 609.635571 329.714286L860.077786 329.714286C897.588357 329.714286 928 360.124071 928 397.635571L928 648.078714C928 685.588357 897.590214 716 860.078714 716ZM868.571429 423.097929C868.571429 404.345429 853.366071 389.142857 834.617286 389.142857L635.097 389.142857C616.3445 389.142857 601.142857 404.348214 601.142857 423.097929L601.142857 622.616357C601.142857 641.368857 616.348214 656.571429 635.097 656.571429L834.616357 656.571429C853.369786 656.571429 868.571429 641.366071 868.571429 622.616357L868.571429 423.097929ZM414.364429 270.285714 163.921286 270.285714C126.411643 270.285714 96 239.875929 96 202.364429L96-48.077786C96-85.588357 126.409786-116 163.921286-116L414.3635-116C451.874071-116 482.285714-85.590214 482.285714-48.078714L482.285714 202.364429C482.285714 239.874071 451.875929 270.285714 414.364429 270.285714ZM422.857143-22.617286C422.857143-41.369786 407.651786-56.571429 388.903-56.571429L189.383643-56.571429C170.631143-56.571429 155.428571-41.366071 155.428571-22.617286L155.428571 176.903C155.428571 195.6555 170.633929 210.857143 189.383643 210.857143L388.903 210.857143C407.6555 210.857143 422.857143 195.651786 422.857143 176.903L422.857143-22.617286ZM860.078714 270.285714 609.635571 270.285714C572.125929 270.285714 541.714286 239.875929 541.714286 202.364429L541.714286-48.077786C541.714286-85.588357 572.124071-116 609.635571-116L860.077786-116C897.588357-116 928-85.590214 928-48.078714L928 202.364429C928 239.874071 897.590214 270.285714 860.078714 270.285714ZM868.571429-22.617286C868.571429-41.369786 853.366071-56.571429 834.617286-56.571429L635.097-56.571429C616.3445-56.571429 601.142857-41.366071 601.142857-22.617286L601.142857 176.903C601.142857 195.6555 616.348214 210.857143 635.097 210.857143L834.616357 210.857143C853.369786 210.857143 868.571429 195.651786 868.571429 176.903L868.571429-22.617286 868.571429-22.617286Z"  horiz-adv-x="1024" />

    
    <glyph glyph-name="zhaoxiangji" unicode="&#59116;" d="M512 603.428571c-141.357714 0-256-114.642286-256-256s114.642286-256 256-256 256 114.642286 256 256S653.357714 603.428571 512 603.428571zM512 182.857143c-90.750171 0-164.571429 73.821257-164.571429 164.571429s73.821257 164.571429 164.571429 164.571429 164.571429-73.821257 164.571429-164.571429S602.750171 182.857143 512 182.857143zM841.142857 603.428571c-20.214857 0-36.571429-16.356571-36.571429-36.571429s16.356571-36.571429 36.571429-36.571429 36.571429 16.356571 36.571429 36.571429S861.357714 603.428571 841.142857 603.428571zM950.857143 713.142857 750.999771 713.142857l-62.2848 93.429029C681.929143 816.749714 670.500571 822.857143 658.285714 822.857143L365.714286 822.857143c-12.214857 0-23.643429-6.107429-30.429257-16.285257L273.000229 713.142857 73.142857 713.142857c-40.321829 0-73.142857-32.821029-73.142857-73.142857l0-585.142857c0-40.321829 32.821029-73.142857 73.142857-73.142857l877.714286 0c40.321829 0 73.142857 32.821029 73.142857 73.142857L1024 640C1024 680.321829 991.178971 713.142857 950.857143 713.142857zM73.142857 54.857143 73.142857 640l219.428571 0c12.214857 0 23.643429 6.107429 30.429257 16.285257L385.285486 749.714286l253.429029 0 62.2848-93.429029C707.786971 646.107429 719.215543 640 731.428571 640l219.428571 0 0.071314-585.142857L73.142857 54.857143z"  horiz-adv-x="1024" />

    
    <glyph glyph-name="luxian1" unicode="&#59000;" d="M801.268622 488.507022c-8.874667-8.897422-23.278933-8.897422-32.176356 0l-143.428267 143.451022L625.664 231.505778c0-12.583822-10.194489-22.755556-22.755556-22.755556l-341.333333 0 0-295.822222c0-12.583822-10.194489-22.755556-22.755556-22.755556s-22.755556 10.171733-22.755556 22.755556l0 318.577778c0 12.561067 10.194489 22.755556 22.755556 22.755556l341.333333 0L580.152889 631.958044l-143.428267-143.451022c-8.897422-8.897422-23.301689-8.897422-32.176356 0-8.897422 8.897422-8.897422 23.278933 0 32.176356l180.952178 180.952178c0.432356 0.477867 0.6144 1.092267 1.092267 1.547378 4.5056 4.5056 10.422044 6.690133 16.315733 6.621867 5.893689 0.068267 11.832889-2.116267 16.315733-6.621867 0.432356-0.4096 0.568889-0.955733 0.955733-1.410844l181.088711-181.111467C810.166044 511.808711 810.166044 497.404444 801.268622 488.507022z"  horiz-adv-x="1024" />

    
    <glyph glyph-name="shunxuxunhuan" unicode="&#58919;" d="M829.671 481.863c-48.578 48.578-113.165 75.331-181.863 75.331L377.889 557.194l0 51.632c0 16.49-11.334 22.662-25.186 13.716L228.44 542.287c-13.852-8.945-13.717-23.371 0.301-32.055l123.662-76.61c14.018-8.684 25.486-2.298 25.486 14.192l0 51.379 269.918 0c109.836 0 199.193-89.358 199.193-199.193 0-18.161-2.438-36.146-7.246-53.454-4.287-15.432 4.747-31.417 20.179-35.704 2.597-0.722 5.209-1.066 7.779-1.066 12.701 0 24.359 8.41 27.925 21.245 6.213 22.363 9.363 45.571 9.363 68.979C905.001 368.699 878.248 433.286 829.671 481.863zM781.787 89.768l-123.662 76.61c-14.018 8.684-25.486 2.298-25.486-14.192l0-51.379L341.194 100.807c-109.835 0-199.193 89.357-199.193 199.193 0 38.488 10.988 75.828 31.775 107.982 8.696 13.45 4.841 31.403-8.608 40.098-13.451 8.697-31.403 4.841-40.099-8.609C98.202 397.914 84.001 349.686 84.001 300c0-68.698 26.753-133.285 75.33-181.863 48.578-48.577 113.165-75.33 181.863-75.33l291.444 0 0-51.632c0-16.49 11.334-22.662 25.186-13.716l124.264 80.254C795.939 66.658 795.805 81.084 781.787 89.768z"  horiz-adv-x="1024" />

    
    <glyph glyph-name="xinxi" unicode="&#58996;" d="M120.000512 75.043584l111.5904 0 0-139.398144c0-11.293696 6.780928-21.466112 17.171456-25.811968 3.500032-1.477632 7.191552-2.188288 10.8288-2.188288 7.218176 0 14.30016 2.788352 19.632128 8.0384L441.125888 75.043584l462.874624 0c30.925824 0 56.000512 25.073664 56.000512 56.000512L960.001024 636.356352c0 30.925824-25.073664 56.000512-56.000512 56.000512L120.000512 692.356864c-30.925824 0-56.000512-25.073664-56.000512-56.000512l0-505.312256C64.001024 100.118272 89.074688 75.043584 120.000512 75.043584zM120.000512 636.356352l784 0 0-505.312256-485.81632 0L287.5904 2.5024 287.5904 131.044096 120.000512 131.044096 120.000512 636.356352zM260.000768 355.126016 764.00128 355.126016c15.463424 0 28.000256 12.537856 28.000256 28.000256 0 15.464448-12.536832 28.000256-28.000256 28.000256L260.000768 411.126528c-15.463424 0-28.000256-12.535808-28.000256-28.000256C232.000512 367.663872 244.538368 355.126016 260.000768 355.126016zM260.000768 467.126016 764.00128 467.126016c15.463424 0 28.000256 12.537856 28.000256 28.000256 0 15.464448-12.536832 28.000256-28.000256 28.000256L260.000768 523.126528c-15.463424 0-28.000256-12.535808-28.000256-28.000256C232.000512 479.663872 244.538368 467.126016 260.000768 467.126016zM624.001024 271.126272c0 15.464448-12.536832 28.000256-28.000256 28.000256L260.000768 299.126528c-15.463424 0-28.000256-12.535808-28.000256-28.000256 0-15.4624 12.536832-28.000256 28.000256-28.000256l336 0C611.464192 243.126016 624.001024 255.663872 624.001024 271.126272z"  horiz-adv-x="1024" />

    
    <glyph glyph-name="yinle" unicode="&#983238;" d="M995.891079 48.493742C972.797953-30.489664 893.52793-89.205166 798.616818-89.205166 685.566956-89.205166 593.603903-6.536687 593.603903 95.089448 593.603903 196.674637 685.566956 279.302171 798.616818 279.302171 844.72118 279.302171 886.853853 265.012276 921.125035 241.755368L921.125035 559.408693 513.63781 537.093526C479.080011 535.25099 448.08445 515.228758 430.109481 487.263145L430.109481-6.905194C430.109481-8.543005 429.044904-10.344596 428.676396-12.023352 429.16774-17.30529 430.437043-22.382502 430.437043-27.746331 430.437043-129.372466 338.55588-212 225.628854-212 112.619937-212 20.656884-129.372466 20.656884-27.746331 20.656884 73.838858 112.619937 156.507337 225.628854 156.507337 271.774161 156.507337 313.947779 142.176496 348.218961 118.919589L348.300852 607.969771C348.300852 693.217802 420.814907 781.700508 510.034628 786.572994L958.549002 811.017314C959.818305 811.099204 960.923827 811.590547 962.234076 811.590547 962.8892 811.590547 963.421488 811.303931 964.035667 811.303931L968.744372 811.549602C986.227998 812.368507 1002.27854 799.102243 1003.302171 781.536727 1003.302171 781.086329 1003.097445 780.635931 1003.097445 780.185533 1003.097445 779.817026 1003.343116 779.530409 1003.343116 779.161902L1003.343116 66.059259C1003.343116 59.426127 1000.231277 53.652845 995.891079 48.493742ZM348.218961-6.905194 348.218961 25.27778C326.149466 66.427766 279.717542 95.089448 225.628854 95.089448 150.289576 95.089448 88.953577 39.977128 88.953577-27.746331 88.953577-95.469791 150.289576-150.623056 225.628854-150.623056 298.798033-150.623056 358.209605-98.41785 361.526171-33.355832 353.787516-25.330561 348.218961-15.380863 348.218961-6.905194ZM798.616818 217.925227C723.236595 217.925227 661.900596 162.812907 661.900596 95.089448 661.900596 27.325043 723.236595-27.746331 798.616818-27.746331 856.840977-27.746331 906.302851 5.378384 925.83374 51.728418 923.049462 56.068615 921.125035 60.818265 921.125035 66.059259L921.125035 148.113559C899.05554 189.263545 852.664561 217.925227 798.616818 217.925227ZM430.109481 607.273701 430.109481 575.131673C453.775841 589.708185 480.799712 599.412212 509.952737 601.009077L921.125035 623.52897 921.125035 745.955296 512 730.109481C458.402655 702.921828 430.109481 659.02851 430.109481 607.273701Z"  horiz-adv-x="1024" />

    
    <glyph glyph-name="chanpinliebiaofanhuidingbu" unicode="&#58931;" d="M570.695 3.482c-20.152-15.178-40.499-20.276-59.039-20.056-18.538-0.299-38.904 4.703-59.129 19.783-18.136 12.919-34.336 11.152-42.886-0.1-8.552-11.252-5.533-79.528 4.985-94.198 10.507-14.667 22.843 9.557 40.949 10.473 18.108 0.902 33.152-35.364 40.012-56.093 3.505-10.597 8.966-20.285 16.381-20.977 7.42 0.725 12.844 10.436 16.294 21.048 6.774 20.761 21.66 57.090 39.759 56.274 18.115-0.836 30.555-24.998 41.006-10.272 10.442 14.713 13.148 82.994 4.551 94.212-8.599 11.223-24.803 12.911-42.883-0.093zM761.72 235.519c-11.764 20.623-10.311 33.852-81.342 97.965 0.397 231.804-168.032 392.537-168.032 402.249-17.878-9.763-169.573-171.218-168.127-403.030-70.745-64.429-70.603-77.659-82.267-98.345-21.311-37.75-16.046-188.72 4.044-222.978 20.084-34.262 53.255-9.406 64.665 0.142 11.416 9.563 61.712 72.57 74.109 69.741 0 0 15.539 2.894 32.727-13.266 16.981-15.975 38.885-30.965 74.7-33.1v0.004c17.396 2.248 57.491 17.393 74.402 33.438 17.116 16.241 32.452 13.417 32.452 13.417 12.375 2.887 63.069-59.888 74.518-69.399 11.463-9.502 44.887-34.202 64.82 0.148 19.936 34.36 24.804 185.356 3.33 223.013zM511.36 324.519c-44.209-0.1-80.126 35.655-80.226 79.863-0.1 44.214 35.654 80.135 79.868 80.231 44.21 0.104 80.131-35.649 80.226-79.863 0.1-44.209-35.658-80.126-79.868-80.231zM512.346 34.858c-0.163-0.013 0.001-0.029 0.001-0.048 0 0.002 0 0.004 0 0.006 0 0.013 0.151 0.033-0.001 0.042z"  horiz-adv-x="1024" />

    
    <glyph glyph-name="shouji" unicode="&#58908;" d="M826.090023 34.053839c0-53.442166-43.324738-96.764857-96.764857-96.764857L294.670741-62.711018c-53.439096 0-96.761788 43.322691-96.761788 96.764857L197.908954 733.947184c0 53.439096 43.322691 96.762811 96.761788 96.762811l434.655448 0c53.44012 0 96.764857-43.323715 96.764857-96.762811L826.091046 34.053839 826.090023 34.053839zM770.25025 733.947184c0 22.602787-18.321274 40.925085-40.924061 40.925085L294.670741 774.872269c-22.601764 0-40.924061-18.322297-40.924061-40.925085l0-699.893344c0-22.602787 18.322297-40.924061 40.924061-40.924061l434.655448 0c22.602787 0 40.924061 18.321274 40.924061 40.924061L770.25025 733.947184 770.25025 733.947184zM797.529547 118.76722 225.18825 118.76722c-7.716752 0-13.959943 6.244214-13.959943 13.95892 0 7.716752 6.244214 13.960966 13.959943 13.960966l572.341297 0c7.701402 0 13.960966-6.244214 13.960966-13.960966C811.48949 125.010411 805.231973 118.76722 797.529547 118.76722zM797.529547 677.154713 225.18825 677.154713c-7.716752 0-13.959943 6.243191-13.959943 13.95892 0 7.716752 6.244214 13.960966 13.959943 13.960966l572.341297 0c7.701402 0 13.960966-6.244214 13.960966-13.960966C811.48949 683.397904 805.231973 677.154713 797.529547 677.154713zM546.898323 59.43695c0-13.495362-10.946306-24.429389-24.429389-24.429389l-6.978948 0c-13.483082 0-24.430412 10.93505-24.430412 24.429389l0 6.980995c0 13.495362 10.94733 24.429389 24.430412 24.429389l6.978948 0c13.483082 0 24.429389-10.937097 24.429389-24.429389L546.898323 59.43695zM575.090409 429.127803c-1.526773 0-3.094478 0.24457-4.623297 0.789992-7.277754 2.549056-11.096732 10.523681-8.547677 17.803481l3.790326 10.782577c2.562359 7.266497 10.497075 11.137665 17.801435 8.534374 7.267521-2.549056 11.098779-10.523681 8.534374-17.803481l-3.78828-10.782577C586.240353 432.713468 580.855716 429.127803 575.090409 429.127803zM521.869277 277.556713c-1.526773 0-3.094478 0.2415-4.623297 0.787946-7.2798 2.537799-11.096732 10.524704-8.547677 17.775852l39.588647 112.7489c2.549056 7.278777 10.510378 11.150968 17.804505 8.547677 7.265474-2.549056 11.096732-10.524704 8.53335-17.790178l-39.588647-112.747877C533.020244 281.124981 527.635607 277.556713 521.869277 277.556713zM465.29477 382.825244c-1.526773 0-3.095501 0.24457-4.623297 0.789992-7.278777 2.535753-11.096732 10.523681-8.547677 17.781992l57.882292 164.883281c2.536776 7.293103 10.510378 11.137665 17.791202 8.547677 7.277754-2.549056 11.097756-10.524704 8.5487-17.790178l-57.882292-164.890444C476.459041 386.396583 471.061101 382.825244 465.29477 382.825244zM438.111664 305.476599c-1.526773 0-3.093455 0.2415-4.621251 0.787946-7.2798 2.537799-11.096732 10.522658-8.5487 17.803481l8.520047 24.211425c2.549056 7.278777 10.497075 11.122315 17.790178 8.534374 7.278777-2.536776 11.097756-10.524704 8.5487-17.803481l-8.520047-24.211425C449.262632 309.043844 443.880041 305.476599 438.111664 305.476599z"  horiz-adv-x="1024" />

    
    <glyph glyph-name="sanjiaoxing-copy-copy" unicode="&#58885;" d="M1020.604-40.072h-1019.922l505.305 874.386z"  horiz-adv-x="1024" />

    
    <glyph glyph-name="sanjiaoxing" unicode="&#58914;" d="M112.082 104.057l399.918 559.886 399.918-559.886z"  horiz-adv-x="1024" />

    
    <glyph glyph-name="zan" unicode="&#58950;" d="M862.012164 328.235952c55.766095 0 83.646072 167.294191 0 167.294191L694.718997 495.530143c167.292144 278.819217 46.175669 334.585311 0 334.585311 0-141.651161-208.308303-299.500235-418.2365-362.471428l0-446.108291L220.720496 21.535735 220.720496 467.649142l55.762001 0 0 27.891234L164.960541 495.540376c-30.674627 0-55.766095-37.646412-55.766095-83.653235l0-334.590428c0-46.000684 25.092491-83.640955 55.766095-83.640955l111.527073 0 0 27.874861c237.637282-24.696472 154.789389-83.646072 390.350382-83.646072 55.760978 0 111.527073 27.879977 111.527073 83.646072 55.766095 0 83.651188 139.40705 55.766095 139.40705C889.897258 160.937668 925.61883 328.235952 862.012164 328.235952L862.012164 328.235952 862.012164 328.235952zM862.012164 328.235952"  horiz-adv-x="1024" />

    
    <glyph glyph-name="yifu" unicode="&#59019;" d="M962.7904 498.4064 733.1328 763.4944c-7.552 8.7296-18.0736 13.9776-29.568 14.7968-10.368 0.7168-20.4032-2.4064-28.7232-8.576-3.0208-1.8432-5.4784-4.3776-7.0912-7.6032-0.384-0.7168-0.4864-1.5104-0.768-2.2528-0.4608-1.28-1.1008-2.432-1.28-3.84-9.7536-76.672-75.4944-134.4768-152.9088-134.4768-77.3376 0-143.0528 57.728-152.9088 134.272-0.128 0.9984-0.6656 1.8176-0.9216 2.7392-0.3584 1.28-0.64 2.56-1.2544 3.7632-0.7424 1.408-1.792 2.5088-2.8416 3.6608-0.5376 0.5888-0.8192 1.3312-1.4592 1.8944C353.2544 768 353.0752 768.1024 352.896 768.2304c-0.256 0.2048-0.5376 0.384-0.8192 0.5888-8.5248 6.8352-19.072 10.3168-30.0288 9.472-11.52-0.8192-22.016-6.0672-29.568-14.7968L62.8224 498.4064c-15.5904-17.9712-13.6448-45.312 4.352-60.928l130.9952-113.5104c8.1408-7.0656 18.2272-10.5216 28.2624-10.5216 5.2224 0 10.368 1.1264 15.2832 2.9696L241.7152 42.496c0-37.0432 30.1312-67.2 67.1744-67.2l410.8288 0c37.0432 0 67.2 30.1568 67.2 67.2L786.9184 315.4688c4.0192-1.2032 8.1408-1.9968 12.3136-1.9968 10.0352 0 20.096 3.456 28.2624 10.5216l130.9952 113.5104C976.4352 453.12 978.3808 480.4352 962.7904 498.4064z"  horiz-adv-x="1024" />

    
    <glyph glyph-name="170" unicode="&#58939;" d="M1017.856 515.072c8.192 36.864-55.296 90.112-79.872 4.096-18.432-59.392 6.144-88.064-2.048-94.208s-309.248-370.688-358.4-428.032c-71.68 22.528-358.4 104.448-446.464 133.12-90.112 53.248-57.344 192.512 6.144 174.08 43.008-12.288 321.536-94.208 370.688-108.544 47.104-14.336 65.536-24.576 100.352 18.432 49.152 59.392 358.4 413.696 395.264 452.608 26.624 30.72 36.864 73.728-20.48 83.968-59.392 12.288-397.312 92.16-446.464 100.352-47.104 8.192-59.392 20.48-106.496-36.864-24.576-30.72-335.872-378.88-376.832-421.888-45.056-47.104-110.592-270.336 49.152-331.776 159.744-55.296 356.352-110.592 446.464-137.216 40.96-12.288 67.584-18.432 92.16 22.528s344.064 411.648 368.64 444.416c22.528 30.72 10.24 4.096 4.096 59.392s-2.048 36.864 4.096 65.536zM415.744 654.336c18.432 22.528 20.48 26.624 26.624 32.768 18.432 18.432 40.96 14.336 61.44 10.24 14.336-2.048 241.664-59.392 256-61.44 14.336-4.096 57.344-10.24 34.816-36.864-24.576-28.672-22.528-26.624-30.72-34.816s-26.624-14.336-57.344-6.144c-26.624 8.192-245.76 59.392-264.192 61.44s-45.056 12.288-26.624 34.816z"  horiz-adv-x="1025" />

    
    <glyph glyph-name="phone" unicode="&#58882;" d="M718.234 896h-463.77c-41.626 0-75.264-31.923-75.264-71.168v-881.587c0-39.142 33.638-71.245 75.264-71.245h463.821c41.805 0 75.315 32.102 75.315 71.245v881.587c-0.102 39.245-33.587 71.168-75.366 71.168v0zM475.059-98.995c-20.813 0-37.606 15.949-37.606 35.686 0 19.533 16.768 35.584 37.606 35.584 20.71 0 37.555-16.051 37.555-35.584-0.026-19.814-16.87-35.686-37.555-35.686v0zM750.438 3.251h-528.179v846.080h528.205l0-846.080h-0.026zM750.438 3.251z"  horiz-adv-x="1024" />

    
    <glyph glyph-name="xin" unicode="&#58934;" d="M677.51936 703.96928c113.1008 0 204.8-91.6992 204.8-204.77952 0-186.91072-370.3296-435.15904-370.3296-435.15904S141.68064 303.32928 141.68064 499.18976c0 140.78976 91.6992 204.77952 204.77952 204.77952 68.11648 0 128.28672-33.40288 165.5296-84.55168C549.24288 670.5664 609.41312 703.96928 677.51936 703.96928z"  horiz-adv-x="1024" />

    
    <glyph glyph-name="kaishi" unicode="&#58902;" d="M790.6-128l-15 0c-41.5 0-75.3 33.8-75.3 75.3L700.3 820.7c0 41.5 33.8 75.3 75.3 75.3l15 0c41.5 0 75.3-33.8 75.3-75.3l0-873.4C865.9-94 832.1-128 790.6-128zM248.4-128l-15 0c-41.5 0-75.3 33.8-75.3 75.3L158.1 820.7c0 41.5 33.8 75.3 75.3 75.3l15 0c41.5 0 75.3-33.8 75.3-75.3l0-873.4C323.6-94 289.8-128 248.4-128z"  horiz-adv-x="1024" />

    
    <glyph glyph-name="kongjian" unicode="&#58947;" d="M537.814579 48.35817C537.814579 48.35817 224.993434-141.800315 205.660365-126.265672 186.327347-110.731028 269.096192 243.593523 269.096192 243.593523 269.096192 243.593523-11.085722 476.87957 0.377754 505.529252 11.841178 534.178939 371.737549 559.491031 371.737549 559.491031 371.737549 559.491031 505.441331 895.999995 537.81463 896 570.187878 896.000005 703.891763 559.490949 703.891763 559.490949 703.891763 559.490949 1065.295514 534.030797 1075.251558 505.528986 1085.207552 477.027174 806.533018 243.593452 806.533018 243.593452 806.533018 243.593452 810.013389 220.938911 814.012518 204.066319 814.277683 202.947471 683.948698 199.978066 577.123942 204.066319 521.010381 206.213821 453.482957 216.617078 453.482957 216.617078L762.738637 437.129651C762.738637 437.129651 650.896077 457.275858 537.81463 461.290255 413.975501 465.686543 287.200563 453.803592 269.096192 449.209938 257.729587 446.325888 349.166182 446.548818 453.482957 437.129651 526.49943 430.536714 622.607155 412.969052 622.607155 412.969052L313.351526 182.755773C313.351526 182.755773 445.787443 174.708746 564.582861 175.496156 698.303642 176.382495 818.984448 193.015813 819.72393 189.815276 842.998682 89.079235 885.955942-110.014838 869.968794-126.265682 848.209766-148.383596 537.814579 48.35817 537.814579 48.35817Z"  horiz-adv-x="1076" />

    
    <glyph glyph-name="haoyou" unicode="&#58921;" d="M950.289895 259.888092c-38.161726 55.038284-89.705979 96.340881-149.515429 120.154135 26.44567 18.505653 48.615439 43.317031 64.735509 72.28599 18.639163 33.501286 28.48069 71.656217 28.48069 110.446317 0 121.169647-93.862161 219.650477-209.087639 219.650477-16.356111 0-29.706459-13.348949-29.706459-29.724047 0-16.388489 13.350348-29.715853 29.706459-29.715853 82.496867 0 149.623355-71.915042 149.623355-160.211976 0-88.406061-67.126488-160.330696-149.623355-160.330696-16.356111 0-29.706459-13.342354-29.706459-29.707858l0-0.125315c0-16.380494 13.350348-29.724047 29.706459-29.724047 148.365208 0 269.146519-128.715931 269.146519-286.898483 0-16.373699 13.335359-29.722648 29.725446-29.722648 16.3723 0 29.721449 13.348949 29.721449 29.722648C1013.355937 129.919411 991.565311 200.324076 950.289895 259.888092M643.355197 310.39285c-31.107709 22.041456-65.113053 39.546587-100.882602 51.882823 75.692281 45.977627 122.16757 127.954047 122.16757 217.004671 0 139.919535-113.856605 253.759951-253.781536 253.759951-140.053044 0-253.909649-113.839217-253.909649-253.885266 0-47.608122 13.350348-94.088808 38.555459-134.393281 21.410484-34.122865 50.379243-62.594161 84.637016-83.117047-36.540825-12.460352-70.923914-30.092197-102.519692-52.517993C143.111962 284.69947 112.883657 255.229051 87.427716 221.475536c-52.629917-70.277952-80.464645-153.774141-80.464645-241.685337 0-16.373699 13.350348-29.724047 29.724047-29.724047s29.724047 13.350348 29.724047 29.724047c0 91.56292 35.768149 177.954347 100.646562 243.070198 64.720719 64.987738 150.350263 100.757087 241.172885 100.882602 3.005962-0.25083 6.045501 0 9.052662 0.630972l2.408567 0.503059c88.400664-1.763804 171.399191-37.405239 234.621726-100.882602 64.848832-65.115851 100.505058-151.380564 100.505058-243.070198 0-16.373699 13.334159-29.724047 29.725446-29.724047 16.358909 0 29.692868 13.350348 29.692868 29.724047 0 87.911196-27.80235 171.405987-80.57517 241.692133C708.21902 256.488597 677.84901 285.959016 643.355197 310.39285M410.860029 773.60839c107.180132 0 194.461555-87.281423 194.461555-194.453361s-87.281423-194.45356-194.461555-194.45356c-107.165342 0-194.461555 87.281423-194.461555 194.45356C216.398474 686.45388 303.693488 773.60839 410.860029 773.60839"  horiz-adv-x="1030" />

    
    <glyph glyph-name="pingguo" unicode="&#58891;" d="M755.472961 350.351362c-1.125612 166.078945 92.197861 170.376736 96.393325 173.037274-52.494454 76.746278-134.152493 88.821025-163.21375 89.946637-69.480963 7.060658-135.58509-40.112721-170.888378-40.112721-35.200959 0-89.639652 40.215049-147.250525 39.191766-75.722994-1.125612-145.613271-43.898871-184.702708-111.74258-78.690517-136.608374-20.158689-338.911562 56.587589-449.630858 37.452183-54.234036 82.169681-115.119416 140.906166-112.970521 56.48526 2.251224 77.87189 36.633557 146.227241 36.633557s87.490756-36.633557 147.352853-35.405616c60.783052 1.125612 99.360847 55.25732 136.506046 109.696013 43.080244 62.931948 60.783052 120.747477 61.806336 123.817328-1.330269 0.61397-118.598581 66.820426-119.826521 177.539722L755.472961 350.351362 755.472961 350.351362zM511.829112 607.604885c0 123.203358 99.872489 223.178175 223.178175 223.178175C735.007287 707.477374 635.032469 607.604885 511.829112 607.604885z"  horiz-adv-x="1024" />

    
    <glyph glyph-name="anquan" unicode="&#59345;" d="M511.881945-128c-107.638154 0-213.484308 86.724923-383.113846 257.536C85.996406 173.508923 59.372406 252.829538 59.077022 301.154462L59.077022 711.758769C58.998252 766.72 99.702252 820.814769 153.836406 837.513846c231.089231 75.145846 484.804923 75.303385 716.642462-0.039385 52.814769-16.384 94.385231-71.640615 94.385231-125.715692l0-410.348308c-0.236308-48.659692-26.919385-128.039385-69.454769-171.638154C725.563175-41.235692 619.697329-128 511.881945-128L511.881945-128zM512.039483 852.617846c-117.484308 0-233.590154-18.392615-345.166769-54.665846-36.233846-11.204923-65.457231-49.801846-65.378462-86.153846L101.494252 301.292308c0.196923-39.660308 24.004923-108.130462 57.796923-142.907077 161.240615-162.264615 260.096-244.814769 352.590769-244.814769 92.672 0 191.566769 82.550154 352.964923 245.051077 33.614769 34.461538 57.403077 102.990769 57.619692 142.887385L922.46656 711.758769c0 35.741538-29.814154 75.224615-65.043692 86.153846C745.57056 834.225231 629.504098 852.617846 512.039483 852.617846L512.039483 852.617846zM511.881945-3.209846c-67.918769 0-181.464615 108.603077-291.938462 219.746462-16.423385 16.994462-33.319385 63.803077-33.654154 85.267692l0 399.753846c0 9.019077 5.966769 17.014154 14.690462 19.771077 202.968615 64 421.12 63.645538 621.942154 0.078769 8.782769-2.756923 14.710154-10.752 14.710154-19.771077l0-400.246154c-0.334769-21.582769-17.604923-68.312615-34.107077-85.307077C692.854252 104.743385 579.879483-3.209846 511.881945-3.209846L511.881945-3.209846zM228.70656 686.296615l0-384.196923c0.157538-12.484923 14.001231-48.659692 21.740308-56.615385 61.518769-61.932308 205.705846-207.104 261.435077-207.104 55.808 0 199.227077 144.344615 260.489846 206.001231 9.058462 9.255385 22.685538 45.764923 22.862769 57.344L795.23456 686.355692C611.800714 741.316923 413.991483 741.572923 228.70656 686.296615L228.70656 686.296615zM511.960714 9.491692c-11.716923 0-21.188923 9.314462-21.188923 20.795077L490.771791 744.369231c0 11.480615 9.472 20.795077 21.188923 20.795077s21.188923-9.294769 21.188923-20.795077l0-714.082462C533.149637 18.806154 523.677637 9.491692 511.960714 9.491692L511.960714 9.491692z"  horiz-adv-x="1024" />

    
    <glyph glyph-name="mianfei" unicode="&#58927;" d="M742.15424 74.46656C675.26656 24.64128 595.68-1.69472 512-1.69472c-212.67328 0-385.696 173.02272-385.696 385.69728 0 81.248 24.95488 158.94528 72.1664 224.6912 16.49408 22.96832 11.2448 54.95936-11.72352 71.45216-22.96832 16.4928-54.95936 11.2448-71.45216-11.72352-59.78752-83.26016-91.39072-181.61024-91.39072-284.41984 0-65.87008 12.91264-129.79712 38.37696-190.00576 24.58624-58.12736 59.77216-110.32064 104.5824-155.13088 44.80896-44.80896 97.00352-79.99616 155.13088-104.5824 60.20864-25.4656 124.1344-38.37696 190.00448-38.37696 105.89056 0 206.62912 33.34912 291.32672 96.4416 22.67648 16.89216 27.3664 48.96896 10.47424 71.64672C796.91008 86.6688 764.832 91.36 742.15424 74.46656zM961.71776 574.00576c-24.58624 58.12864-59.77216 110.32192-104.5824 155.13088C812.3264 773.9456 760.13312 809.13152 702.0032 833.71776 641.79584 859.18336 577.87008 872.096 512 872.096c-105.8752 0-206.60352-33.34016-291.29216-96.416-22.67776-16.89088-27.37024-48.96768-10.47936-71.64544 16.8896-22.67776 48.96768-27.37024 71.64544-10.47936C348.75392 743.3664 428.33024 769.696 512 769.696c212.672 0 385.69472-173.02144 385.69472-385.69344 0-83.51232-26.23872-162.96704-75.87968-229.77536-16.864-22.69696-12.13568-54.76864 10.56128-71.63392 9.17504-6.81728 19.88096-10.10688 30.496-10.10688 15.64416 0.00128 31.08992 7.14496 41.13792 20.66688 62.85824 84.59904 96.08448 185.17248 96.08448 290.848C1000.09472 449.87136 987.18208 513.7984 961.71776 574.00576zM355.5712 652.02432c-24.39296-46.66368-51.4368-88.0256-93.32864-143.17312l87.4944 0c18.0288 22.272 34.46784 46.13376 49.31584 70.52672l219.0016 0c3.712 0 7.42528-2.12096 9.01504-4.77312 1.59232-3.1808 1.59232-6.8928 0.52992-10.07488l-37.64736-69.4656L315.80032 495.06432c-19.08992 0-34.99776-15.90784-34.99776-35.52896l0-97.57056c0-19.61984 15.90784-35.52896 34.99776-35.52896l120.9024 0c-36.5888-58.85952-95.97952-98.6304-165.44512-115.59936l0-60.45184c112.41856 18.0288 200.97408 74.76864 247.10784 165.97504L518.36544 186.4448c0-19.08992 15.90784-34.99904 35.52768-34.99904l207.86688 0 0 30.22592L618.5856 181.67168c-11.13472 0-19.61984 9.01376-19.61984 20.14976l0 124.61312 109.23776 0c20.14976 0 35.52768 15.90912 35.52768 35.52896l0 97.57056c0 19.62112-15.37792 35.52896-35.52768 35.52896l-36.06016 0 41.89312 77.41952c4.24192 7.95392 4.24192 16.96896-1.05984 24.92288-4.77312 7.95392-12.19712 12.19584-21.2096 12.19584L417.0816 609.60128c7.95392 13.78688 15.90912 28.10496 23.33312 42.42176L355.5712 652.02304zM452.61056 356.66304l-71.05664 0c-11.136 0-20.15104 9.01504-20.15104 20.14976l0 67.87456c0 11.136 9.01504 20.15104 20.15104 20.15104l93.85856 0C474.88128 424.5376 466.39744 388.47872 452.61056 356.66304zM663.1296 444.68736l0-67.87456c0-11.13472-9.01504-20.14976-20.15232-20.14976l-107.64544 0c11.13728 32.34688 16.97024 68.9344 18.03008 108.17536l89.61536 0C654.11456 464.8384 663.1296 455.82336 663.1296 444.68736z"  horiz-adv-x="1024" />

    
    <glyph glyph-name="fangdajing" unicode="&#58892;" d="M947.509543-2.852403 726.787249 217.869891c55.154992 64.569202 88.411712 148.273808 88.411712 239.653043 0 203.735785-165.77196 369.507745-369.507745 369.507745s-369.507745-165.77196-369.507745-369.507745 165.77196-369.610073 369.507745-369.610073c91.379235 0 175.083841 33.359049 239.653043 88.411712l220.722294-220.722294c5.730389-5.730389 13.20036-8.595583 20.772659-8.595583 7.469971 0 15.04227 2.865194 20.772659 8.595583C958.970321-32.834616 958.970321-14.313181 947.509543-2.852403zM134.817628 457.522934c0 171.40002 139.473569 310.873588 310.873588 310.873588S756.564805 628.922954 756.564805 457.522934c0-171.40002-139.473569-310.873588-310.873588-310.873588S134.817628 286.122914 134.817628 457.522934z"  horiz-adv-x="1024" />

    
    <glyph glyph-name="geren-copy" unicode="&#58880;" d="M905.553 65.449c0.24-32.087-20.647-59.154-49.226-69.323v-4.536h-689.461v4.536c-28.649 10.171-49.261 37.203-49.261 69.323 0 57.984 73.89 98.482 73.89 98.482l221.599 123.149v51.183c-58.844 34.077-98.484 97.558-98.484 170.416v73.856c0 108.824 88.179 197.004 196.969 197.004s197.002-88.179 197.002-197.004v-73.856c0-72.858-39.674-136.339-98.517-170.416v-51.183l221.632-123.149c0 0 73.477-42.389 73.857-98.482v0zM905.553 65.449z"  horiz-adv-x="1024" />

    
    <glyph glyph-name="sanjiaoxing1" unicode="&#58994;" d="M961.130114 768.864438 512-9.050887 62.869886 768.864438 961.130114 768.864438z"  horiz-adv-x="1024" />

    
    <glyph glyph-name="jiahaoyou" unicode="&#58890;" d="M711.41833 332.470393c-45.343721 38.694277-99.857289 67.016323-159.89364 81.244372 73.197092 33.508161 124.456546 106.971313 124.456546 192.536085 0 116.878964-95.136777 212.08328-212.08021 212.08328-116.942409 0-212.082256-95.204315-212.082256-212.08328 0-85.564771 51.258431-159.027923 124.45757-192.536085C208.140992 373.95625 82.618161 223.040075 82.618161 43.07019c0-7.381108 0.200568-14.693654 0.598634-21.940708l30.714536 1.794879c-0.331551 6.649444-0.532119 13.429871-0.532119 20.146852 0 193.266725 157.168576 350.432231 350.502839 350.432231 93.607958 0 178.906669-36.962843 241.865583-97.064686C709.358415 318.309882 710.354092 317.312158 711.41833 332.470393M282.601868 606.249827c0 99.991342 81.307817 181.367721 181.299159 181.367721 99.990319 0 181.301206-81.375356 181.301206-181.367721 0-99.990319-81.310887-181.232644-181.301206-181.232644C363.908662 425.017182 282.601868 506.258485 282.601868 606.249827M768.860601 238.063233 768.860601 444.164265 719.594547 444.164265 719.594547 238.063233 513.5631 238.063233 513.5631 188.865741 719.594547 188.865741 719.594547-17.231197 768.860601-17.231197 768.860601 188.865741 974.960609 188.865741 974.960609 238.063233Z"  horiz-adv-x="1024" />

    
    <glyph glyph-name="erpfanhuidingbu" unicode="&#58999;" d="M129.358848 796.672l777.35936 0 0-129.558528L129.357824 667.113472C129.357824 667.113472 129.357824 796.672 129.358848 796.672L129.358848 796.672zM906.718208 213.653504 712.377344 213.653504 712.377344-45.4656 323.69664-45.4656 323.69664 213.653504 129.357824 213.653504l388.67968 388.677632L906.718208 213.653504 906.718208 213.653504 906.718208 213.653504z"  horiz-adv-x="1024" />

    
    <glyph glyph-name="triangle-copy-copy-copy" unicode="&#58884;" d="M748.007 462.673l-236.018-235.966-235.993 235.966h472.014z"  horiz-adv-x="1024" />

    
    <glyph glyph-name="fangdajing1" unicode="&#58997;" d="M1011.2-59.733333l-183.466667 183.466667C896 204.8 938.666667 311.466667 938.666667 426.666667c0 260.266667-209.066667 469.333333-469.333333 469.333333C209.066667 896 0 686.933333 0 426.666667c0-260.266667 209.066667-469.333333 469.333333-469.333333 115.2 0 221.866667 42.666667 302.933333 110.933333l183.466667-183.466667c17.066667-17.066667 42.666667-17.066667 59.733333 0C1028.266667-98.133333 1028.266667-72.533333 1011.2-59.733333zM85.333333 426.666667c0 213.333333 170.666667 384 384 384 213.333333 0 384-170.666667 384-384s-170.666667-384-384-384C256 42.666667 85.333333 213.333333 85.333333 426.666667z"  horiz-adv-x="1025" />

    
    <glyph glyph-name="shandian" unicode="&#58901;" d="M751.484861 837.28576 330.984808 382.777149 500.61316 334.054471 370.51308-69.28576 806.193881 375.534188 633.869117 426.036395 751.484861 837.28576Z"  horiz-adv-x="1024" />

    
    <glyph glyph-name="zhouqi" unicode="&#58893;" d="M470.325931 367.274667c18.705067-9.216 37.205333-18.773333 55.773866-28.330667l87.313067-44.509867 124.1088-63.214933c6.7584-3.413333 13.243733-5.188267 19.524267-5.188267a35.703467 35.703467 0 0 1 15.018666 3.413334 34.133333 34.133333 0 0 1 20.6848 31.880533c0.2048 14.7456-7.099733 26.0096-21.640533 33.450667l-80.6912 41.096533c-50.517333 25.8048-101.1712 51.677867-151.825067 77.277867-5.802667 2.935467-7.236267 5.256533-7.168 11.400533V531.456c0 46.421333 0 92.842667 0.341334 139.332267 0.2048 28.2624-18.568533 41.301333-36.181334 41.437866h-0.2048a35.0208 35.0208 0 0 1-25.1904-10.513066 41.984 41.984 0 0 1-11.127466-30.583467c0.682667-33.1776 0.546133-66.901333 0.4096-99.5328l-0.136534-40.823467v-33.5872c0-37.341867 0.068267-74.683733-0.136533-111.957333 0-8.874667 3.140267-14.062933 11.127467-17.954133z m516.3008 97.8944a435.131733 435.131733 0 0 1-27.579734 110.7968c-8.874667 22.528-30.72 34.816-53.0432 30.1056a47.650133 47.650133 0 0 1-32.768-22.596267c-6.690133-12.219733-7.304533-27.716267-1.570133-43.6224 23.688533-65.536 29.559467-131.2768 17.476267-195.584-18.363733-97.416533-66.833067-176.128-144.110934-234.018133-88.405333-66.218667-188.074667-90.794667-296.277333-72.840534-100.215467 16.520533-181.521067 64.989867-241.664 144.1792-66.901333 88.064-91.204267 186.709333-72.226133 293.341867 17.066667 95.6416 64.580267 173.806933 141.243733 232.379733 86.971733 66.3552 186.368 91.682133 295.7312 75.3664 17.885867-2.730667 35.4304-7.3728 53.930667-12.288l14.336-3.754666-6.621867-11.127467c-4.983467-8.192-9.966933-16.452267-14.609067-24.849067-6.144-11.127467-4.3008-18.568533-1.6384-22.869333 2.730667-4.3008 8.8064-9.557333 22.801067-8.874667a68.949333 68.949333 0 0 1 5.666133 0.4096l27.989334 4.437334c31.197867 4.9152 62.327467 9.762133 93.457066 15.018666a33.314133 33.314133 0 0 1 23.9616 14.9504 31.880533 31.880533 0 0 1 1.774934 27.101867 6182.912 6182.912 0 0 1-43.144534 119.261867C747.352064 886.442667 739.706197 896 731.036331 896h-0.136534c-8.055467-0.068267-16.042667-6.485333-20.0704-12.424533-7.509333-10.922667-14.609067-22.596267-21.845333-35.908267A474.999467 474.999467 0 0 1 456.672597 878.250667c-102.536533-12.288-190.464-51.2-261.461333-115.712C61.954731 641.501867 10.959531 491.656533 43.727531 317.166933c21.435733-113.4592 79.325867-206.848 172.2368-277.504 89.429333-67.9936 186.368-102.1952 289.1776-102.1952 34.4064 0 69.563733 3.822933 105.2672 11.537067 160.1536 34.4064 275.2512 128.2048 341.947733 278.7328 32.290133 72.977067 43.758933 152.917333 34.2016 237.431467z"  horiz-adv-x="1024" />

    
    <glyph glyph-name="tianshi" unicode="&#59187;" d="M513.024 357.888c-87.552 0-158.72 71.168-158.72 158.72s71.168 158.72 158.72 158.72 158.72-71.168 158.72-158.72-71.168-158.72-158.72-158.72z m0 302.592c-79.36 0-143.36-64.512-143.36-143.36s64.512-143.36 143.36-143.36c79.36 0 143.36 64.512 143.36 143.36s-64.512 143.36-143.36 143.36zM759.296 107.52c-7.168 0-11.264 3.072-13.824 6.144-4.608 5.632-4.096 13.312-3.584 15.872 0.512 9.216 10.24 183.296-68.096 221.696l-9.728 4.608 7.68 7.68c6.656 6.656 167.936 162.816 258.048 162.816 24.576 0 55.296-11.776 60.928-67.584 0.512-1.024 0.512-2.56 0.512-4.096-0.512-5.632-2.048-16.896-103.424-62.976-19.968-10.752-49.152-29.184-65.024-47.104 39.936 23.04 118.272 66.56 151.552 66.56 8.704 0 14.848-2.56 18.432-8.192 4.096-6.656 3.584-16.384-2.56-29.696-31.744-68.096-62.976-83.968-111.104-100.864 14.336 3.584 27.648 6.144 37.376 6.144 11.264 0 18.432-3.584 20.992-10.752 4.096-11.264-1.536-30.208-72.704-91.648-52.224-46.08-86.528-68.608-105.472-68.608z m-1.536 15.872h1.536c6.656 0 29.184 6.144 95.744 65.024 64 56.32 68.096 71.68 68.096 74.752-0.512 0.512-2.56 1.024-6.656 1.024-16.384 0-47.104-9.216-73.728-17.408l-3.584-1.024c-20.992-6.144-27.648-7.168-31.232-7.168-7.68 0-9.728 5.12-9.728 6.656-1.024 5.12-2.048 9.728 30.72 26.624l1.024 0.512c10.24 3.584 19.968 7.168 29.184 10.24 54.784 18.944 84.992 29.184 117.248 97.792 5.632 11.776 3.584 14.848 3.584 14.848 0 0.512-1.536 1.024-5.632 1.024-33.28 0-132.096-56.832-166.912-78.336l-12.8-8.192 1.024 14.848c2.56 36.864 77.312 76.8 85.504 80.896 74.752 33.792 91.136 47.616 94.208 51.2-3.584 36.352-18.432 54.272-45.568 54.272-73.728 0-206.848-120.832-239.616-151.552 76.288-49.664 68.096-211.968 67.072-230.912V126.976c0-1.536 0.512-3.072 0.512-3.584zM268.288 107.52c-20.992 0-56.832 22.528-109.568 68.608-70.656 61.952-76.8 80.896-72.704 91.648 2.56 7.168 9.728 10.752 20.992 10.752 9.728 0 23.04-2.56 37.888-6.144-48.128 16.896-79.36 32.768-111.616 100.864-6.144 13.312-7.168 22.528-2.56 29.696 3.584 5.632 9.728 8.192 18.432 8.192 33.28 0 112.128-43.52 151.552-66.56-15.872 17.92-45.056 36.864-65.536 47.104-100.864 46.08-101.888 57.344-102.912 62.976 0 1.536 0 2.56 0.512 4.096 5.632 55.808 36.352 67.584 60.928 67.584 90.112 0 250.88-156.16 258.048-162.816l7.68-7.68-9.728-4.608c-80.896-39.424-60.928-219.648-60.416-221.696 0-2.048 0.512-9.728-5.12-15.872-3.072-2.56-7.68-6.144-15.872-6.144z m-167.936 155.136c0-3.072 4.096-18.432 68.096-74.752 64.512-56.32 90.112-65.024 99.84-65.024 1.536 0 3.584 0 4.096 1.024 1.024 1.024 1.024 3.072 1.024 4.096 0 1.536-21.504 178.688 59.392 231.424-32.768 30.72-165.888 151.552-239.616 151.552-27.136 0-41.984-17.92-45.568-54.272 3.072-3.584 19.456-17.408 94.208-51.2 8.704-4.608 83.456-44.544 86.016-81.408l1.024-14.848-12.8 8.192c-35.328 22.016-133.632 78.336-166.912 78.336-4.096 0-5.632-1.024-5.632-1.024s-2.048-3.072 3.584-14.848c32.256-68.608 62.464-78.848 117.248-97.792 9.216-3.072 18.432-6.656 29.184-10.24l1.024-0.512c33.28-16.896 32.256-21.504 30.72-26.624-0.512-1.536-2.048-6.656-9.728-6.656-3.072 0-9.728 0.512-31.232 7.168l-3.584 1.024c-26.624 8.192-57.344 17.408-73.728 17.408-4.096 0-6.144-1.024-6.656-1.024zM513.024 743.936c-13.312 0-128.512-0.512-128.512-20.48s115.2-20.48 128.512-20.48c13.312 0 128.512 0.512 128.512 20.48-0.512 19.968-115.712 20.48-128.512 20.48z m0-33.28c-70.144 0-114.688 7.68-120.32 12.8 6.144 5.632 50.688 12.8 120.32 12.8 70.144 0 114.688-7.68 120.32-12.8-6.144-5.632-50.688-12.8-120.32-12.8zM525.312 46.592c-32.768 0-66.56 2.56-100.864 8.192l-33.28 6.144c-27.136 5.632-52.224 12.288-77.824 19.968l-13.312 4.096-1.024 7.68v124.928c0 73.216 49.664 137.728 120.832 156.16l4.096 1.024 3.072-3.072c23.552-22.016 53.76-33.792 84.992-33.792 31.744 0 61.952 11.776 84.992 33.792l3.072 3.072 4.096-1.024c53.248-14.336 96.768-55.808 113.152-108.544v-1.024l6.656-32.768c0.512-4.608 0.512-9.728 0.512-14.336v-132.608h-6.656l-6.144-2.56c-7.168-3.584-73.216-35.328-186.368-35.328z m-210.944 49.664l3.584-1.024c25.088-7.68 49.664-14.336 76.288-19.456l32.768-6.144c33.28-5.12 66.56-7.68 98.304-7.68 111.616 0 177.152 32.256 179.712 33.792l4.608 2.56v119.808c0 4.096 0 8.192-0.512 12.288l-6.144 31.232c-14.336 46.08-52.224 82.944-98.304 96.768-25.6-22.528-58.368-34.816-92.16-34.816-34.304 0-66.56 12.288-92.16 34.816-61.952-18.432-105.472-75.264-105.472-140.288v-121.856z"  horiz-adv-x="1024" />

    
    <glyph glyph-name="triangle" unicode="&#58903;" d="M206.479 262.136l305.536 305.468 305.503-305.468h-611.041z"  horiz-adv-x="1024" />

    
    <glyph glyph-name="naoling" unicode="&#58953;" d="M775.616 407.232a232.256 232.256 0 0 1-140.544 212.864v42.688c0 51.328-41.984 92.928-93.696 92.928s-93.696-41.6-93.696-92.928v-42.688a232.256 232.256 0 0 1-140.544-212.864v-162.624h468.544V407.232zM494.464 662.784c0 25.664 20.992 46.464 46.848 46.464s46.848-20.8 46.848-46.464H494.464z m304.576-441.408H283.648L213.312 151.68v-23.232l23.424-23.232h210.88c0-51.328 41.984-92.928 93.696-92.928s93.696 41.6 93.696 92.928h210.88l23.424 23.232v23.232l-70.272 69.696z"  horiz-adv-x="1024" />

    
    <glyph glyph-name="xiaoyuan" unicode="&#58626;" d="M114.005 443.025h199.077v-21.957c0 0-30.744-8.787-42.452-23.425 0-20.49-2.925-298.617-2.925-298.617h-111.253l1.467 295.694c0 0-19.028 23.423-43.915 26.349 0 8.782 0 21.956 0 21.956zM395.057 443.025h199.078v-21.957c0 0-30.745-8.787-42.452-23.425 0-20.49-2.925-298.617-2.925-298.617h-111.254l1.467 295.694c0 0-19.028 23.423-43.915 26.349 0 8.782 0 21.956 0 21.956zM684.892 443.025h199.077v-21.957c0 0-30.744-8.787-42.452-23.425 0-20.49-2.924-298.617-2.924-298.617h-111.254l1.466 295.694c0 0-19.028 23.423-43.914 26.349-0 8.782-0 21.956-0 21.956zM87.656 52.187h822.662v-43.914h-822.662v43.914zM62.77-16.613h893.658v-45.377h-893.658v45.377zM522.41 833.864l434.019-300.085v-40.985l-893.658 0v40.985l415.724 300.085 43.915-0zM499.17 698.827c-40.93 0-74.106-33.176-74.106-74.106 0-40.929 33.176-74.106 74.106-74.106 40.929 0 74.105 33.177 74.105 74.106 0 40.929-33.176 74.106-74.105 74.106z"  horiz-adv-x="1024" />

    
    <glyph glyph-name="icon5-copy" unicode="&#58637;" d="M835.79 426.865l-129.901 34.809-133.908-77.312 133.313-76.969 130.351 34.927 16.426-61.306-69.043-18.5 61.904-35.74-31.733-54.966-62.332 35.986 18.562-69.273-60.63-16.244-34.808 129.901-133.576 77.121v-134.011l95.093-94.167-44.822-44.383-50.272 49.782v-92.204h-63.469v93.020l-50.768-50.273-44.327 43.895 95.095 94.166v134.367l-116.389-67.198-34.003-129.436-60.849 16.625 17.977 68.429-79.85-46.102-31.733 54.966 80.558 46.51-68.923 18.831 15.85 60.335 129.099-35.271 116.364 67.183-116.388 67.197-129.097-35.27-16.028 61.009 68.249 18.645-79.852 46.103 31.733 54.967 80.559-46.512-18.154 69.103 60.178 16.442 34.003-129.439 116.695-67.374v154.318l-95.425 95.423 44.88 44.881 50.545-50.545v71.482h63.469v-71.977l50.711 50.71 44.385-44.383-95.096-95.095v-154.624l133.313 76.969 34.928 130.351 61.306-16.429-18.502-69.044 61.904 35.74 31.733-54.967-62.333-35.986 69.273-18.562-16.246-60.63z"  horiz-adv-x="1024" />

    
    <glyph glyph-name="kaishi1" unicode="&#59086;" d="M892.981938 439.753222c46.461212-32.522848 46.461212-78.98406 0-111.506909l-669.041452-441.381513c-46.461212-32.522848-83.630181-9.292242-83.630181 46.461212v901.347511c0 55.753454 37.16897 78.98406 83.630181 46.461212l669.041452-441.381513z"  horiz-adv-x="1024" />

    
    <glyph glyph-name="banquan" unicode="&#59087;" d="M508.586667 877.226667c-262.826667 0-477.866667-215.04-477.866667-477.866667s215.04-477.866667 477.866667-477.866667 477.866667 215.04 477.866666 477.866667-215.04 477.866667-477.866666 477.866667z m0-887.466667c-225.28 0-409.6 184.32-409.6 409.6s184.32 409.6 409.6 409.6 409.6-184.32 409.6-409.6-184.32-409.6-409.6-409.6zM546.133333 551.253333h110.933334c18.773333 0 34.133333 15.36 34.133333 34.133334s-15.36 34.133333-34.133333 34.133333H546.133333c-121.173333 0-220.16-98.986667-220.16-220.16C325.973333 278.186667 424.96 179.2 546.133333 179.2h110.933334c18.773333 0 34.133333 15.36 34.133333 34.133333s-15.36 34.133333-34.133333 34.133334H546.133333c-83.626667 0-151.893333 68.266667-151.893333 151.893333s68.266667 151.893333 151.893333 151.893333z"  horiz-adv-x="1024" />

    
    <glyph glyph-name="zhuye" unicode="&#58933;" d="M513.301333 772.202667l393.002667-387.157334-0.938667 0.021334a422.186667 422.186667 0 0 1-16.576 0.341333h-105.749333V-10.837333h-122.282667V70.826667c0.042667 7.552-1.301333 46.634667-30.869333 76.330666-13.504 13.568-37.461333 29.738667-74.88 29.738667h-104.149333c-66.346667 0-103.978667-53.354667-105.706667-103.552l-0.042667-1.109333v-83.072h-122.282666V385.493333H126.549333L513.301333 772.202667m0.042667 70.613333c-20.885333 0-41.770667-21.845333-41.770667-21.845333L78.229333 427.690667c-35.157333-35.2-20.821333-65.557333-20.821333-65.557334l17.962667-19.861333s18.688-20.8 41.749333-20.8h41.706667v-354.624s-1.962667-41.706667 41.749333-41.706667h166.826667c43.370667 0 41.706667 41.706667 41.706666 41.706667v104.256s1.429333 41.770667 41.749334 41.770667h104.149333c41.941333 0 41.749333-41.770667 41.749333-41.770667v-104.256s-2.325333-41.706667 41.706667-41.706667h166.826667c44.16 0 41.749333 41.706667 41.749333 41.706667v354.56h41.749333c10.218667 0 16.554667-0.490667 22.378667-0.490667 6.698667 0 12.714667 0.661333 23.061333 3.52 19.328 5.333333 33.514667 18.56 38.485334 31.552s17.728 35.456-18.453334 71.637334L555.008 820.970667s-20.885333 21.845333-41.664 21.845333z"  horiz-adv-x="1024" />

    
    <glyph glyph-name="contral" unicode="&#58909;" d="M946.367 443.721h-64.695c-9.135 54.441-30.553 104.71-61.294 147.879l45.783 45.786c23.289 23.329 23.327 61.121 0 84.449-23.329 23.328-61.159 23.328-84.45 0l-45.785-45.785c-43.17 30.74-93.439 52.159-147.883 61.293v64.703c0 32.971-26.75 59.721-59.721 59.721-32.991 0-59.721-26.75-59.721-59.721v-64.703c-54.438-9.134-104.705-30.548-147.872-61.286l-45.777 45.777c-23.309 23.328-61.121 23.328-84.449 0-23.329-23.328-23.329-61.12 0-84.449l45.772-45.775c-30.745-43.171-52.166-93.444-61.301-147.89h-64.698c-32.99 0-59.721-26.751-59.721-59.721 0-32.971 26.731-59.721 59.721-59.721h64.697c9.137-54.436 30.558-104.708 61.303-147.878l-45.787-45.786c-23.329-23.329-23.309-61.121 0-84.449 23.328-23.328 61.139-23.328 84.468 0l45.778 45.779c43.166-30.736 93.429-52.153 147.862-61.287v-64.704c0-32.971 26.731-59.721 59.721-59.721 32.971 0 59.721 26.75 59.721 59.721v64.704c54.434 9.135 104.699 30.55 147.863 61.287l45.776-45.779c23.328-23.328 61.159-23.328 84.487 0 23.29 23.328 23.29 61.12 0 84.449l-45.797 45.796c30.741 43.169 52.16 93.436 61.296 147.868h64.697c32.971 0 59.721 26.75 59.721 59.721 0.003 32.971-26.747 59.722-59.717 59.722zM528.321 145.117c-131.923 0-238.884 106.962-238.884 238.883 0 131.923 106.961 238.884 238.884 238.884 131.922 0 238.884-106.961 238.884-238.884 0-131.921-106.961-238.883-238.884-238.883zM528.321 503.441c-65.961 0-119.441-53.462-119.441-119.441 0-65.981 53.481-119.441 119.441-119.441 65.941 0 119.441 53.46 119.441 119.441 0 65.98-53.499 119.441-119.441 119.441z"  horiz-adv-x="1024" />

    
    <glyph glyph-name="pingguo1" unicode="&#59495;" d="M314.121978 673.747158c-85.292251-10.23507-153.526052-95.527321-180.819572-150.114361-122.820841-245.641683 194.466332-634.574347 307.052103-607.280827 17.05845 3.41169 34.1169 17.05845 75.057181 23.881831 54.587041 6.82338 85.292251-17.05845 119.409151-20.47014 71.645491-6.82338 139.879291 71.645491 184.231262 129.644221 51.175351 64.822111 204.701402 249.053373 146.702672 446.931395-10.23507 30.70521-34.1169 115.997461-109.174081 160.349431-3.41169 3.41169-95.527321 54.587041-184.231262 23.881831-34.1169-13.64676-44.35197-30.70521-85.292251-34.116901-37.52859-6.82338-64.822111 3.41169-95.527321 10.23507-44.35197 6.82338-129.644221 23.88183-177.407882 17.05845zM822.463793 226.815764c-23.88183-105.762391-119.409151-225.171542-211.524782-228.583233-34.1169 0-54.587041 13.64676-105.762391 3.41169-64.822111-13.64676-119.409151-61.410421-115.997461-78.46887 3.41169-13.64676 37.52859-10.23507 40.94028-10.235071 37.52859 3.41169 47.763661 27.29352 75.057181 30.705211 34.1169 3.41169 47.763661-23.88183 78.468871-34.116901 54.587041-17.05845 115.997461 27.29352 153.526051 54.587041 122.820841 88.703941 286.581963 324.110553 221.759853 552.693786-10.23507 40.94028-34.1169 109.174081-98.939011 153.526051-57.998731 37.52859-150.114362 54.587041-180.819572 20.470141-54.587041-71.645491 191.054642-249.053373 143.290981-463.989845zM624.585771-128c-10.23507 0-17.05845 0-23.88183 3.41169-10.23507 3.41169-20.47014 10.23507-27.29352 13.64676-17.05845 10.23507-30.70521 17.05845-54.587041 20.47014-23.88183 0-40.94028-6.82338-57.998731-17.05845-10.23507-3.41169-17.05845-10.23507-27.29352-13.64676-78.468871-23.88183-194.466332 75.057181-279.758583 184.231262-3.41169 3.41169-6.82338 10.23507-6.82338 20.47014 0 17.05845 13.64676 30.70521 30.70521 30.705211 10.23507 0 17.05845-3.41169 23.881831-13.646761 92.115631-122.820841 184.231262-173.996192 214.936472-163.761121 3.41169 0 10.23507 3.41169 17.05845 6.82338 20.47014 10.23507 47.763661 23.88183 85.292251 23.88183s64.822111-17.05845 81.880561-27.29352c6.82338-3.41169 13.64676-6.82338 17.05845-10.23507 23.88183-6.82338 95.527321 27.29352 180.819572 122.820841 61.410421 71.645491 112.585771 153.526052 139.879291 231.994922 40.94028 115.997461 23.88183 191.054642 3.411691 235.406613-13.64676 30.70521-34.1169 61.410421-57.998731 85.292251-20.47014 20.47014-54.587041 47.763661-95.527321 54.58704-51.175351 6.82338-133.055911-10.23507-170.584502-20.47014-3.41169 0-6.82338-3.41169-10.23507-3.41169-23.88183-6.82338-51.175351-13.64676-92.115631-13.64676-37.52859 0-64.822111 6.82338-92.115631 13.64676-3.41169 0-6.82338 3.41169-13.64676 3.41169-40.94028 10.23507-119.409151 27.29352-167.172812 20.47014-78.468871-10.23507-136.467601-92.115631-156.937741-133.055911-17.05845-40.94028-23.88183-85.292251-17.058451-139.879292 6.82338-47.763661 20.47014-98.939011 47.763661-153.526051 3.41169-3.41169 3.41169-6.82338 3.41169-13.64676 0-17.05845-13.64676-30.70521-30.70521-30.705211-10.23507 0-20.47014 6.82338-27.293521 17.058451C30.951705 267.756044 13.893255 325.754775 7.069875 380.341815c-6.82338 64.822111 0 119.409151 23.88183 170.584502 30.70521 57.998731 102.350701 153.526052 208.113092 167.172812 68.233801 10.23507 170.584502-17.05845 191.054642-23.88183 3.41169 0 10.23507-3.41169 13.64676-3.41169 23.88183-6.82338 44.35197-13.64676 75.057181-13.646761 30.70521 0 51.175351 6.82338 71.645491 13.646761 3.41169 0 6.82338 3.41169 13.64676 3.41169 13.64676 3.41169 122.820841 34.1169 197.878022 23.88183 44.35197-6.82338 88.703941-30.70521 126.232531-71.645491l17.058451-17.05845s34.1169-37.52859 54.58704-85.292251c20.47014-47.763661 34.1169-156.937742 0-276.346893-37.52859-126.232531-105.762391-208.113092-153.526051-255.876753 0 0-40.94028-57.998731-126.232532-109.174081-37.52859-20.47014-68.233801-30.70521-95.527321-30.70521zM129.890716 117.641683c-10.23507 0-20.47014 6.82338-23.88183 13.64676-3.41169 6.82338-3.41169 10.23507-3.41169 17.05845 0 17.05845 10.23507 30.70521 27.29352 30.70521 10.23507 0 20.47014-6.82338 23.88183-13.64676 3.41169-3.41169 3.41169-10.23507 3.41169-17.05845 3.41169-17.05845-10.23507-30.70521-27.29352-30.70521zM849.757314 799.97969C853.169004 823.86152 774.700133 881.860251 703.054642 861.39011c-98.939011-23.88183-129.644221-187.642952-109.174081-201.289712 13.64676-10.23507 44.35197 54.587041 139.879291 95.527321 68.233801 34.1169 112.585771 27.29352 115.997462 44.351971zM583.645491 632.806878c-6.82338 0-13.64676 3.41169-17.05845 6.82338-20.47014 10.23507-23.88183 34.1169-20.470141 75.057181 10.23507 54.587041 47.763661 156.937742 136.467602 177.407882 57.998731 13.64676 122.820841-10.23507 156.937741-44.351971 23.88183-20.47014 27.29352-40.94028 23.881831-54.58704 0-10.23507-6.82338-23.88183-27.293521-34.116901-6.82338 0-17.05845-3.41169-30.70521-3.41169-20.47014-3.41169-44.35197-10.23507-75.057181-23.88183-51.175351-23.88183-81.880561-51.175351-102.350701-71.645491-6.82338-6.82338-13.64676-13.64676-20.47014-17.05845-3.41169-6.82338-13.64676-10.23507-23.88183-10.23507z m133.055911 204.701402c-6.82338 0-13.64676 0-20.47014-3.41169-30.70521-6.82338-51.175351-34.1169-64.822111-54.58704-17.05845-27.29352-27.29352-57.998731-30.70521-92.115631C658.702672 765.862789 716.701402 796.568 784.935203 810.21476c-40.94028-10.23507-10.23507-3.41169 10.23507 3.41169-17.05845 10.23507-34.1169 20.47014-54.587041 23.88183 17.05845-6.82338-3.41169 0-23.88183 0zM501.76493 625.983498c-10.23507 6.82338-20.47014 27.29352-13.64676 40.94028 6.82338 10.23507 20.47014 44.35197 10.23507 78.468871-6.82338 17.05845-13.64676 30.70521-27.29352 40.940281 6.82338-6.82338 3.41169 0 3.41169 6.82338 0 17.05845 13.64676 30.70521 30.70521 30.70521 10.23507 0 17.05845-3.41169 23.88183-10.23507 17.05845-20.47014 30.70521-47.763661 34.116901-75.057181 3.41169 0 17.05845-68.233801-17.058451-98.939011-13.64676-10.23507-30.70521-20.47014-44.35197-13.64676z"  horiz-adv-x="1024" />

    
    <glyph glyph-name="icon-" unicode="&#58969;" d="M610.468864 384.591872c-17.014784 0-34.039808-15.777792-34.039808-35.244032 0-15.77472 17.025024-31.6416 34.039808-31.6416 25.561088 0 43.800576 15.86688 43.800576 31.6416 0.002048 19.46624-18.239488 35.244032-43.800576 35.244032M498.608128 548.786176c26.758144 0 43.777024 17.015808 43.777024 42.566656 0 26.758144-17.016832 42.535936-43.777024 42.535936-25.526272 0-49.85856-15.777792-49.85856-42.535936-0.001024-25.549824 24.332288-42.566656 49.85856-42.566656M370.92864 194.91328c-44.997632 0-77.831168 7.292928-120.39168 19.465216l-122.810368-62.000128 35.284992 104.537088C76.659712 317.70624 25.6 394.365952 25.6 487.985152c0 165.368832 155.635712 291.847168 345.32864 291.847168 167.817216 0 317.382656-99.72224 346.55744-240.780288-12.148736 2.441216-23.087104 3.64032-32.820224 3.64032-165.385216 0-293.049344-124.056576-293.049344-273.59744 0-25.55904 3.647488-48.620544 9.718784-72.97536-9.718784-1.206272-20.673536-1.206272-30.406656-1.206272m507.087872-119.1936l24.300544-87.552-92.413952 52.308992c-35.264512-7.283712-69.307392-18.266112-104.56576-18.266112-162.952192 0-291.856384 111.910912-291.856384 250.560512 0 138.569728 128.902144 250.456064 291.856384 250.456064C859.764736 523.227136 998.4 411.3408 998.4 272.771072c0-77.857792-52.283392-147.141632-120.383488-197.051392M257.855488 633.888768c-25.535488 0-52.291584-15.777792-52.291584-42.535936 0-25.549824 26.75712-42.566656 52.291584-42.566656 24.308736 0 43.776 17.015808 43.776 42.566656 0 26.758144-19.474432 42.535936-43.776 42.535936m543.540224-249.296896c-18.248704 0-34.04288-15.777792-34.04288-35.244032 0-15.77472 15.794176-31.6416 34.04288-31.6416 24.328192 0 42.576896 15.86688 42.576896 31.6416 0 19.46624-18.248704 35.244032-42.576896 35.244032m0 0"  horiz-adv-x="1024" />

    
    <glyph glyph-name="bianji" unicode="&#58889;" d="M610.742857 40.777143v-20.114286c0-5.485714 4.571429-10.057143 10.057143-10.057143h462.445714c5.485714 0 10.057143 4.571429 10.057143 10.057143v20.114286c0 5.485714-4.571429 10.057143-10.057143 10.057143H620.8c-5.485714 0-10.057143-4.571429-10.057143-10.057143z m409.417143 76.617143c4.022857 0 7.314286 4.571429 7.314286 10.057143v20.114285c0 5.485714-3.291429 10.057143-7.314286 10.057143H683.885714c-4.022857 0-7.314286-4.571429-7.314285-10.057143v-20.114285c0-5.485714 3.291429-10.057143 7.314285-10.057143h336.274286z m215.771429 451.291428c-12.068571 0-21.76-9.691429-21.76-21.76v-561.371428c0-31.268571-25.417143-56.685714-56.685715-56.685715H519.862857c-31.268571 0-56.685714 25.417143-56.685714 56.685715V787.017143c0 14.994286 5.851429 29.257143 16.64 40.045714 10.788571 10.788571 24.868571 16.64 39.862857 16.64h399.725714c12.068571 0 21.76 9.691429 21.76 21.76s-9.691429 21.76-21.76 21.76H519.862857c-26.697143 0-51.748571-10.422857-70.765714-29.44-19.017143-19.017143-29.44-44.068571-29.44-70.765714v-801.462857c0-55.222857 44.982857-100.205714 100.205714-100.205715H1157.485714c55.222857 0 100.205714 44.982857 100.205715 100.205715V546.742857c0 12.068571-9.691429 21.942857-21.76 21.942857zM658.285714 410.697143l-26.697143-132.571429c-2.377143-11.52 8.045714-21.577143 19.382858-19.017143l130.56 29.257143c14.994286 3.291429 28.525714 10.788571 39.497142 21.76L1239.222857 728.502857c24.685714 24.685714 24.685714 64.731429 0 89.417143l-51.748571 51.748571C1162.788571 894.354286 1122.742857 894.354286 1098.057143 869.668571L680.228571 451.84c-11.154286-11.154286-18.834286-25.6-21.942857-41.142857z m56.685715 22.857143l409.6 409.6c10.057143 10.057143 26.331429 10.057143 36.388571 0l51.748571-51.748572c10.057143-10.057143 10.057143-26.331429 0-36.388571l-409.6-409.6c-4.388571-4.388571-11.702857-4.388571-16.274285 0L714.971429 417.28c-4.571429 4.388571-4.571429 11.702857 0 16.274286z"  horiz-adv-x="1755" />

    
    <glyph glyph-name="huodong" unicode="&#59147;" d="M670.024691 725.333333c44.246914 0 82.17284 37.925926 82.17284 82.17284S714.271605 896 670.024691 896c-44.246914 0-82.17284-37.925926-82.172839-82.17284s37.925926-88.493827 82.172839-88.493827zM891.259259 510.419753h-44.246913s-101.135802 56.888889-145.382716 120.098766c0 0-18.962963 69.530864-158.024692 69.530864H328.691358c-18.962963 0-37.925926-37.925926-37.925926-37.925926L183.308642 478.814815s-25.283951-56.888889 18.962963-56.888889c0 0 31.604938-6.320988 50.567901 25.283951l82.17284 113.777777s12.641975 25.283951 31.604938 25.283951h69.530864s25.283951 6.320988 18.962963-18.962963c0 0-69.530864-101.135802-82.172839-189.62963v-227.555555s0-31.604938-25.283951-37.925926H145.382716s-56.888889 6.320988-56.888889-50.567901c0 0 0-50.567901 56.888889-50.567902h284.444444c31.604938 0 37.925926 101.135802 37.925926 101.135803s6.320988 145.382716 31.604939 107.45679c0 0 120.098765-233.876543 164.345679-303.407407 0 0 6.320988-44.246914 56.888889-44.246914 0 0 56.888889 12.641975 44.246913 50.567901L587.851852 333.432099v44.246913l56.888889 132.740741s25.283951 31.604938 44.246913 6.320988c0 0 31.604938-37.925926 126.419753-88.493827h82.17284s44.246914 0 44.246913 44.246913c-6.320988-6.320988 0 31.604938-50.567901 37.925926z"  horiz-adv-x="1024" />

    
    <glyph glyph-name="wenhao" unicode="&#59049;" d="M512 896c-283.031 0-512-228.969-512-512s228.969-512 512-512c283.031 0 512 228.969 512 512-1.59 283.031-230.559 512-512 512zM542.211 83.478h-90.634v90.634h90.634v-90.634zM648.745 441.242c-9.54-17.491-28.621-38.161-55.652-65.193-28.621-27.031-46.112-47.702-50.882-58.832-4.77-11.13-7.95-30.211-7.95-60.422l7.95-23.851h-90.634l-1.59 25.441c1.59 30.211 6.36 57.242 14.311 77.913 9.54 22.261 28.621 47.702 57.242 77.913 27.031 27.031 42.932 47.702 49.292 57.242 4.77 9.54 7.95 20.671 7.95 36.571 0 22.261-6.36 39.752-20.671 52.472-14.311 12.72-33.391 20.671-58.832 20.671-54.062 0-73.143-38.161-77.913-106.534h-90.634v9.54c1.59 31.801 4.77 55.652 12.72 74.733s19.081 36.571 36.571 52.472c17.491 15.901 36.571 27.031 57.242 33.391 20.671 6.36 41.342 11.13 63.602 11.13 46.112 0 85.863-14.311 116.075-41.342 30.211-27.031 46.112-65.193 46.112-111.304 0-23.851-4.77-44.522-14.311-62.012z"  horiz-adv-x="1030" />

    
    <glyph glyph-name="baoming1" unicode="&#58883;" d="M649.044677 463.3488c-88.648018 0-160.733925 72.085907-160.733925 160.733926 0 88.648018 72.085907 160.733925 160.733925 160.733925 88.648018 0 160.733925-72.085907 160.733926-160.733925-0.135755-88.648018-72.221662-160.733925-160.733926-160.733926z m0 287.664855c-69.913827 0-126.795174-56.881347-126.795174-126.795174 0-69.913827 56.881347-126.795174 126.795174-126.795175 69.913827 0 126.795174 56.881347 126.795175 126.795175-0.135755 69.778072-56.881347 126.795174-126.795175 126.795174zM884.986875 278.993504c-7.738035-4.479915-17.648151-2.307835-22.535331 5.15869-47.378497 70.728357-127.745459 114.169959-213.406867 114.169959-85.661408 0-166.028371-43.305846-213.406867-114.169959-5.022935-7.466525-14.933051-9.638605-22.535331-5.15869-8.41681 4.88718-10.996155 16.019091-5.565955 24.164391 24.435901 36.382341 56.881347 67.062972 94.621238 89.326793 44.391887 26.064961 95.164258 39.776216 146.886915 39.776216 51.722657 0 102.495029-13.711255 146.886915-39.776216 37.875646-22.263821 70.321092-52.808697 94.621238-89.326793 5.4302-8.281055 2.98661-19.277211-5.565955-24.164391zM988.567944 896H310.878961c-33.124221 0-61.089752-27.965531-61.089752-61.089752v-901.820496c0-33.124221 27.965531-61.089752 61.089752-61.089752h677.688983c33.667241 0 61.089752 28.237041 61.089752 62.854567V834.910248c0 33.124221-27.965531 61.089752-61.089752 61.089752z m22.263821-963.046003c0-12.21795-10.04587-22.263821-22.263821-22.263821H310.878961c-12.21795 0-22.263821 10.04587-22.263821 22.263821V834.910248c0 12.21795 10.04587 22.263821 22.263821 22.263821h677.688983c12.21795 0 22.263821-10.04587 22.263821-22.263821v-901.956251zM906.843431 166.31685H403.192364c-8.95983 0-16.290601 7.33077-16.290601 16.290601s7.33077 16.290601 16.290601 16.2906h503.651067c8.95983 0 16.290601-7.33077 16.290601-16.2906s-7.33077-16.290601-16.290601-16.290601zM906.843431 49.567546H403.192364c-8.95983 0-16.290601 7.33077-16.290601 16.290601s7.33077 16.290601 16.290601 16.2906h503.651067c8.95983 0 16.290601-7.33077 16.290601-16.2906s-7.33077-16.290601-16.290601-16.290601z"  horiz-adv-x="1413" />

    
    <glyph glyph-name="qian" unicode="&#58958;" d="M512-128C229.23264-128 0 101.23264 0 384S229.23264 896 512 896s512-229.23264 512-512-229.23264-512-512-512z m236.30848 433.2288h-196.92544V384h196.92544V462.7712h-166.61504l166.35904 196.92544h-103.69024L512 502.15424 378.39872 659.69152H275.9424l166.35904-196.92544H275.69152V384h196.92544v-78.7712H275.69152v-78.7712h196.92544v-157.53728h78.7712V226.4576h196.92544v78.7712z"  horiz-adv-x="1024" />

    
    <glyph glyph-name="arr-down-copy" unicode="&#58887;" d="M882.787 550.649l-370.805-370.727-370.768 370.727h741.573z"  horiz-adv-x="1024" />

    
    <glyph glyph-name="gushi" unicode="&#58894;" d="M537.6 39.236267a12.8 12.8 0 0 0-8.704 22.186666c24.763733 23.005867 65.058133 43.810133 130.6624 67.515734l77.346133 24.081066a12.782933 12.782933 0 1 0 7.594667-24.4224l-76.8-23.893333c-60.808533-21.998933-99.566933-41.762133-121.378133-62.037333a12.731733 12.731733 0 0 0-8.721067-3.4304zM839.68 742.4a12.8 12.8 0 0 0-6.024533 24.098133c30.225067 16.093867 54.4768 25.429333 78.592 30.242134a12.8 12.8 0 0 0 5.034666-25.088c-21.589333-4.317867-43.6736-12.868267-71.594666-27.7504A12.8 12.8 0 0 0 839.68 742.4zM537.6 39.236267h-11.946667a12.8 12.8 0 0 0-12.8 12.8V593.066667a12.8 12.8 0 0 0 1.109334 5.2224c30.3104 67.754667 105.045333 125.1328 222.1056 170.5472a12.8 12.8 0 0 0 9.2672-23.876267c-109.090133-42.308267-178.670933-94.344533-206.882134-154.692267v-525.482666a12.8 12.8 0 0 0-0.853333-25.5488zM179.2 742.4a12.7488 12.7488 0 0 0-6.690133 1.8944c-19.438933 11.946667-39.970133 20.445867-66.577067 27.5456a12.8 12.8 0 0 0 6.6048 24.7296c29.098667-7.765333 51.729067-17.152 73.3696-30.464A12.817067 12.817067 0 0 0 179.2 742.4zM593.92-20.497067H419.84c-5.853867 0-9.949867 3.140267-12.6976 5.7344-88.576 45.294933-187.835733 47.684267-295.082667 7.0656a12.782933 12.782933 0 1 0-9.0624 23.944534c114.978133 43.554133 221.866667 40.482133 317.627734-9.130667a12.680533 12.680533 0 0 0 2.833066-1.9968H593.92a12.8 12.8 0 0 0 0-25.617067zM460.8 39.236267a12.765867 12.765867 0 0 0-9.403733 4.113066c-17.5616 19.029333-52.9408 38.621867-111.325867 61.6448l-72.669867 23.637334a12.8 12.8 0 1 0 7.936 24.32l73.386667-23.893334c63.6928-25.088 100.949333-46.08 121.4976-68.352A12.8 12.8 0 0 0 460.8 39.236267zM581.9904-20.497067a12.8 12.8 0 0 0-5.905067 24.1664c101.597867 52.5824 217.531733 56.814933 344.576 12.680534a12.8 12.8 0 1 0-8.3968-24.1664c-120.149333 41.710933-229.307733 37.956267-324.420266-11.246934a12.714667 12.714667 0 0 0-5.853867-1.4336zM472.746667 39.236267H460.8a12.8 12.8 0 0 0 0 25.6h11.946667a12.8 12.8 0 0 0 0-25.6zM472.746667 39.236267a12.8 12.8 0 0 0-12.8 12.8V590.4384c-26.606933 60.6208-91.682133 112.64-193.467734 154.641067a12.8 12.8 0 0 0 9.762134 23.6544c109.550933-45.2096 179.626667-102.638933 208.298666-170.7008a12.731733 12.731733 0 0 0 1.006934-4.9664v-541.0304a12.8 12.8 0 0 0-12.8-12.8zM271.36 123.733333a17.066667 17.066667 0 0 0-17.066667 17.066667V756.906667a17.066667 17.066667 0 0 0 34.133334 0v-616.106667a17.066667 17.066667 0 0 0-17.066667-17.066667zM107.52-12.8h-0.034133a17.066667 17.066667 0 0 0-17.032534 17.1008l1.706667 779.9296a17.066667 17.066667 0 0 0 17.066667 17.032533h0.034133A17.066667 17.066667 0 0 0 126.293333 784.162133l-1.706666-779.9296a17.066667 17.066667 0 0 0-17.066667-17.032533zM916.462933-12.8a17.066667 17.066667 0 0 0-17.066666 17.032533L897.706667 784.162133a17.066667 17.066667 0 0 0 17.032533 17.1008h0.034133a17.066667 17.066667 0 0 0 17.066667-17.032533l1.706667-779.9296a17.066667 17.066667 0 0 0-17.032534-17.1008h-0.0512zM740.693333 123.733333a17.066667 17.066667 0 0 0-17.066666 17.066667V756.906667a17.066667 17.066667 0 1 0 34.133333 0v-616.106667a17.066667 17.066667 0 0 0-17.066667-17.066667z"  horiz-adv-x="1024" />

    
    <glyph glyph-name="qian1" unicode="&#59001;" d="M989.184 570.368c-27.648 20.992-55.808 41.984-83.456 62.464-25.088 18.944-50.176 37.376-75.264 56.32-29.696 22.528-59.904 45.056-89.6 68.096l-36.352 27.648h-12.8c-8.704-3.584-17.408-6.656-26.624-10.24-20.48-7.68-41.984-15.872-62.976-23.552-18.432-6.656-37.888-13.312-56.32-19.456-8.192-3.072-16.384-5.632-24.576-8.704-2.048-1.024-4.608-1.536-6.656-2.56-11.776-4.608-25.088-9.728-40.448 0-2.048 1.024-10.24-2.048-13.312-3.072-56.832-18.944-121.344-41.472-184.832-64.512-3.584-1.536-7.168-4.608-10.752-8.192-2.048-2.56-4.608-4.608-7.168-6.656-1.024-1.024-2.048-2.048-3.584-2.56-4.608-4.096-9.728-8.192-15.872-10.24-43.008-15.36-87.04-30.72-129.536-45.056l-53.76-18.432c-12.288-5.12-19.456-9.216-19.968-13.824-1.024-4.608 3.584-11.776 14.336-21.504l29.696-28.672-7.68-3.072c-3.584-1.536-6.656-2.56-9.216-3.584-6.144-2.048-11.264-4.096-16.384-6.144-4.096-2.048-9.216-5.12-10.24-9.728-1.024-5.12 2.56-10.24 5.632-13.312 6.144-7.168 12.8-13.824 19.456-20.992l14.848-16.384-6.656-2.56c-2.048-1.024-4.096-1.536-6.656-2.56-5.12-2.048-10.752-4.096-15.872-6.144-4.608-2.048-9.728-5.12-10.752-10.24-1.536-5.632 2.048-10.752 5.12-13.824 6.656-7.168 13.824-13.824 20.992-20.992 3.584-3.584 7.168-6.656 10.752-10.24l5.632-5.632-7.168-3.072c-3.072-1.024-6.144-2.56-8.704-3.584-5.632-2.048-10.24-4.096-15.36-6.144-4.608-2.048-10.24-5.12-11.264-10.24-1.024-5.12 3.072-10.24 6.144-13.824 6.656-6.656 13.312-13.312 20.992-19.968 3.584-3.072 7.168-6.656 10.752-10.24l5.632-5.632-15.36-6.144c-5.12-2.048-9.216-3.584-13.312-5.12-6.144-2.56-14.336-6.656-15.36-11.776-1.024-4.608 2.56-10.24 9.728-17.408 10.752-10.24 22.016-20.992 32.768-31.232 6.656-6.144 13.312-12.288 19.456-18.432l209.92-198.656h12.288c4.608 2.048 9.216 4.096 13.312 6.144 10.24 4.608 21.504 9.728 32.256 13.824 41.984 16.384 83.968 32.768 125.952 48.64l52.224 19.968 2.048-4.096c11.776-23.04 11.776-23.04 35.84-13.312l40.448 15.872c38.912 15.36 79.36 31.232 119.296 46.592 13.824 5.632 20.992 10.752 20.992 25.088 0 8.704 12.288 17.408 18.432 19.968 31.744 12.8 64 25.6 94.72 37.888 33.792 13.312 69.12 27.136 103.424 40.96 10.24 4.096 18.944 11.264 19.456 13.824 0 5.632-7.168 13.824-13.312 19.968l-2.56 2.56c-4.096 4.608-9.216 8.192-15.36 12.8-3.072 2.048-5.632 4.096-8.704 6.656l-7.168 5.632 8.192 3.072c4.096 1.536 7.68 3.072 11.264 4.608 7.168 2.56 13.312 5.12 19.456 8.192 6.144 3.072 10.24 6.656 10.752 11.264 0.512 4.096-2.048 8.704-7.168 13.312-7.168 6.144-14.848 11.776-23.04 17.92l-12.288 9.216-7.168 5.632 18.432 7.68c6.144 2.56 11.776 4.608 16.896 7.168 8.192 3.584 12.8 7.68 13.824 12.288 0.512 4.608-3.072 10.24-10.24 15.872-6.656 5.12-13.312 10.24-20.48 15.872-3.584 2.56-7.68 5.632-11.776 8.704l-7.168 5.632 8.192 3.584 10.752 4.608c7.168 2.56 12.8 5.12 18.944 8.192 6.656 3.072 10.752 7.168 11.776 11.264 0.512 4.096-2.048 9.216-7.68 13.824-7.168 6.144-14.848 11.776-22.528 17.408-3.584 3.072-7.68 5.632-11.776 9.216l-7.168 5.632 17.92 7.68c6.144 2.56 11.264 4.608 16.896 7.168 8.704 3.584 14.336 8.192 14.848 12.8 0.512 1.536-3.584 7.168-11.264 12.8zM78.336 535.04l-5.12 5.632L128 559.616c11.264 4.096 23.04 8.192 34.304 11.776 33.28 11.776 68.096 23.552 102.4 34.816 8.192 2.56 21.504 2.048 28.16-3.584 67.584-56.32 135.168-113.664 201.216-169.472l31.744-27.136c1.536-1.024 2.56-2.56 3.584-4.096 0.512-0.512 1.024-1.536 1.536-2.56l3.584-5.12-5.632-2.56c-1.536-1.024-3.584-1.536-5.12-2.56-3.584-2.048-7.168-3.584-10.752-5.12L445.44 357.888c-37.376-14.336-74.752-28.672-111.616-43.008-4.608-1.536-9.216-3.072-13.824-3.072-5.12 0-10.752 2.048-16.896 7.68-51.2 48.64-103.936 98.304-154.624 145.92-20.48 19.456-40.96 38.912-61.44 57.856-2.048 2.048-3.584 4.096-5.632 6.144-0.512 2.56-1.536 4.096-3.072 5.632z m0-216.576l2.048 2.56c4.608 5.632 9.216 8.192 14.336 8.704 7.168 0.512 13.312-4.608 18.944-9.728 20.992-19.968 42.496-39.936 63.488-59.904 37.888-35.328 76.8-72.192 115.2-109.056 13.312-12.8 24.064-14.848 41.472-7.68 46.592 18.944 94.72 37.376 140.8 54.784 16.384 6.144 32.768 12.288 49.152 18.944 4.096 1.536 8.192 3.072 12.288 4.096 2.048 0.512 4.608 1.536 6.656 2.048l6.144 2.048 0.512-6.656c3.584-35.328 2.048-37.376-27.648-48.64-14.336-5.632-29.184-11.264-43.52-16.896-47.616-18.432-96.256-37.376-144.896-55.296-3.072-1.024-7.168-2.048-11.264-2.048-6.656 0-13.312 1.536-16.896 5.12-63.488 58.88-127.488 119.296-189.952 177.664l-32.768 30.72c-1.024 1.024-2.048 2.56-2.56 3.584 0 0.512-0.512 1.024-0.512 1.024l-1.024 4.608z m444.928-220.672c-14.848-5.632-29.184-11.264-44.032-16.896-48.128-18.432-97.28-37.888-146.432-55.808-2.56-1.024-6.144-1.536-9.216-1.536-6.656 0-14.336 2.048-18.944 6.144-62.976 58.368-125.952 117.76-187.392 175.616l-30.72 29.184c-1.536 1.536-3.072 3.584-4.608 5.12-0.512 0.512-1.024 1.536-1.536 2.048l-2.048 2.56 6.656 14.848 4.608-2.048c2.56-1.024 4.608-1.536 7.68-2.56 6.144-2.048 12.8-4.096 17.408-8.704 63.488-58.88 120.32-111.616 177.664-167.424 13.824-13.312 24.576-15.36 43.008-8.192 46.08 18.944 93.184 36.864 138.752 53.76 16.896 6.656 34.304 12.8 51.2 19.456l12.288 4.608 11.776 4.096 1.024-6.144c3.584-34.304 2.56-36.864-27.136-48.128z m0.512 145.92c-16.384-6.144-32.256-12.288-48.64-18.432-45.056-17.408-92.16-35.328-137.728-53.248-5.12-2.048-10.24-3.584-15.36-3.584-7.168 0-14.336 2.56-22.016 10.24-56.832 54.272-114.688 108.544-171.008 161.28l-39.936 37.376c-2.048 1.536-4.096 3.584-6.656 5.12-1.536 1.024-2.56 2.048-4.096 3.072l-5.12 3.584 6.144 4.096c17.92 11.776 20.48 12.8 34.816-0.512l40.96-38.4c46.08-43.52 94.208-88.064 140.8-133.12 10.752-10.24 19.456-12.288 33.28-6.656 47.616 18.944 96.768 37.888 143.872 55.808 16.384 6.144 33.28 12.8 49.664 18.944 4.608 1.536 8.704 3.072 13.312 5.12l11.776 4.096 1.024-6.144c6.656-34.816 5.12-37.376-25.088-48.64z m1.024 72.704l-44.032-16.896c-48.64-18.944-97.28-37.376-145.92-56.32-4.608-2.048-9.216-3.584-13.824-3.584-5.12 0-10.752 2.048-16.896 7.68-52.224 49.664-105.472 99.84-156.672 147.968-19.968 18.432-39.424 37.376-59.392 55.808-2.048 2.048-3.584 4.096-5.632 6.144-0.512 1.024-1.536 1.536-2.048 2.56l-3.584 4.096 3.584 3.584c15.36 15.36 27.648 4.096 34.816-3.072 20.48-18.944 40.448-38.4 60.928-57.344 38.4-35.84 77.824-73.216 116.224-110.592 13.312-12.8 24.064-14.848 41.984-7.68 47.104 18.944 95.232 37.376 141.824 55.296 15.872 6.144 32.256 12.288 48.128 18.432 4.096 1.536 8.192 3.072 12.288 4.096 2.048 0.512 3.584 1.024 5.632 2.048l5.12 2.048 1.536-5.632c7.68-32.768 5.12-37.376-24.064-48.64z m190.976-174.08c-30.72-11.776-60.416-23.552-92.16-36.864-12.288-5.12-24.576-9.728-37.376-14.848l-7.168-3.072v29.184 66.56c0 64.512 0 131.072 0.512 196.608 0 12.288-3.584 20.48-13.312 28.672C501.76 462.848 436.736 517.632 373.248 571.392l-52.224 44.032c-3.072 2.56-6.144 5.632-10.24 8.704L299.008 634.88l7.168 3.072c2.048 1.024 4.096 2.048 5.632 2.56 3.584 2.048 7.168 3.584 10.752 4.608 14.848 5.12 29.696 10.24 44.032 15.36 28.672 10.24 57.856 20.48 86.528 30.72 11.776 4.608 20.992 3.072 30.72-5.632 30.72-26.112 61.44-51.712 92.16-77.312 47.104-39.424 95.232-79.872 142.848-120.32 8.192-7.168 14.336-20.48 14.336-31.232 0.512-58.88 0.512-118.272 0.512-176.128v-112.128c0-10.752-3.072-20.48-17.92-26.112z m237.568 129.536l4.608-5.632-194.56-76.8-0.512 6.656c-3.072 34.816-2.56 37.888 26.112 49.664l25.6 10.24c26.624 10.752 53.76 21.504 80.384 32.256 30.208 11.776 34.816 10.24 58.368-16.384z m0 73.216l5.12-5.632-192.512-76.288-1.536 5.632c-7.68 33.28-5.12 37.888 22.528 48.64 35.84 14.336 71.68 28.672 108.032 43.008 30.208 12.288 33.28 11.264 58.368-15.36z m0.512 72.704l4.096-5.632-193.536-76.8-1.024 6.656c-4.608 35.328-3.584 37.888 26.112 49.664 10.24 4.096 20.48 8.192 30.72 11.776 24.064 9.216 49.152 18.944 73.216 30.208 24.064 11.776 41.984 6.656 60.416-15.872z m0 73.216l5.632-5.632-192.512-76.288-1.536 5.12c-9.216 30.72-6.144 37.888 20.48 48.64 24.064 9.728 48.128 18.944 72.192 28.672l35.328 13.824c30.72 12.8 32.768 12.288 60.416-14.336z m-1.024 67.072c-2.048-1.024-3.584-2.048-5.12-3.072-3.072-2.048-6.144-3.584-9.216-5.12l-20.48-8.192c-44.032-16.896-89.088-34.816-134.144-51.2-3.072-1.024-7.168-2.048-11.264-2.048-6.144 0-11.776 1.536-15.872 4.608-66.048 53.76-132.608 108.544-197.12 161.792l-31.232 25.6c-1.536 1.536-2.56 2.56-4.096 4.608-1.024 1.024-2.048 2.56-3.072 4.096l-4.608 5.632 42.496 14.848c44.544 15.36 86.528 30.208 129.024 44.544 5.632 2.048 13.824 1.024 18.432-2.56 68.608-50.688 135.68-100.864 206.336-154.112l47.616-35.84-7.68-3.584z"  horiz-adv-x="1024" />

    
    <glyph glyph-name="shu" unicode="&#59135;" d="M865.6 667.2v-636.8H264c-59.2 0-105.6 48-105.6 105.6 0 59.2 48 105.6 105.6 105.6h529.6V808H228.8c-78.4 0-140.8-64-140.8-140.8v-564.8c0-78.4 64-140.8 140.8-140.8h707.2V667.2h-70.4zM299.2 171.2h494.4v-70.4H299.2z"  horiz-adv-x="1024" />

    
    <glyph glyph-name="baoming2" unicode="&#58896;" d="M551.803 325.603c75.288 48.748 125.203 133.29 125.203 229.658 0 151.108-122.492 273.6-273.621 273.6-151.087 0-273.6-122.493-273.6-273.6 0-96.348 49.914-180.891 125.162-229.639C120.136 262.636 20.661 116.71 1.044-59.375h76.158c24.877 194.614 161.253 343.606 326.223 343.606 164.97 0 301.345-148.993 326.242-343.606h75.981c-19.616 176.066-119.07 321.972-253.845 384.978z m-96.11 29.29c-17.185 2.629-34.568 4.45-52.346 4.45-17.76 0-35.104-1.82-52.248-4.45-89.072 23.216-154.906 103.981-154.906 200.33 0 114.443 92.788 207.233 207.233 207.233 114.464 0 207.253-92.789 207.253-207.233 0-96.37-65.876-177.153-154.986-200.33z m343.351-28.756c65.28 42.281 108.57 115.59 108.57 199.145 0 118.24-86.559 215.993-199.718 234.028v-68.247c75.859-17.106 132.577-84.778 132.577-165.8S783.755 376.566 707.896 359.5v-76.176c138.038-22.504 244.748-166.91 246.23-342.698h68.19c-1.247 175.452-93.442 324.818-223.272 385.511z"  horiz-adv-x="1024" />

    
    <glyph glyph-name="anzhuo" unicode="&#58922;" d="M244.139 137.456c0-34.401 27.182-62.411 60.597-62.411h43.748a60.231 60.231 0 0 1-2.29-16.371V-66.08c0-32.62 25.722-59.103 57.42-59.103 31.726 0 57.413 26.483 57.413 59.103V58.674c0 5.691-0.858 11.193-2.29 16.371h106.636c-1.46-5.181-2.29-10.711-2.29-16.371V-66.08c0-32.62 25.722-59.103 57.419-59.103 31.698 0 57.42 26.483 57.42 59.103V58.674c0 5.691-0.823 11.193-2.32 16.371h43.744c33.45 0 60.602 28.012 60.602 62.411V570.797H244.077v-433.341h0.062zM148.41 570.798c-31.73 0-57.419-26.453-57.419-59.073v-252.754c0-32.619 25.687-59.073 57.419-59.073 31.698 0 57.42 26.453 57.42 59.073V511.725c0 32.654-25.722 59.103-57.42 59.103v-0.031z m727.263 0c-31.697 0-57.385-26.453-57.385-59.073v-252.754c0-32.619 25.687-59.073 57.385-59.073s57.391 26.453 57.391 59.073V511.725c0 32.654-25.692 59.103-57.391 59.103v-0.031zM643.808 807.306l45.273 69.91c2.925 4.516 1.717 10.653-2.64 13.641-4.448 3.052-10.362 1.809-13.323-2.735l-25.562-39.485-10.773-16.595-10.907-16.854c-34.593 13.797-73.157 21.524-113.853 21.524-40.692 0-79.26-7.758-113.82-21.524l-21.65 33.45-25.625 39.485c-2.926 4.517-8.868 5.754-13.289 2.735-4.355-3.023-5.564-9.125-2.64-13.641l45.274-69.91c-81.2-38.916-136.17-112.708-136.17-197.116h535.843c0 84.407-54.94 158.169-136.14 197.081v0.035zM397.22 689.003c-15.862 0-28.709 13.259-28.709 29.533 0 16.281 12.847 29.506 28.709 29.506 15.835 0 28.709-13.196 28.709-29.506 0-16.31-12.875-29.533-28.709-29.533z m229.672 0c-15.865 0-28.706 13.259-28.706 29.533 0 16.281 12.841 29.506 28.706 29.506 15.869 0 28.678-13.196 28.678-29.506 0-16.31-12.846-29.533-28.678-29.533z m0 0zM246.254 137.782c0-34.401 27.182-62.411 60.597-62.411h43.748a60.231 60.231 0 0 1-2.29-16.371v-124.754c0-32.62 25.722-59.103 57.42-59.103 31.726 0 57.413 26.483 57.413 59.103V59c0 5.691-0.858 11.193-2.29 16.371h106.636c-1.46-5.181-2.29-10.711-2.29-16.371v-124.754c0-32.62 25.722-59.103 57.419-59.103 31.698 0 57.42 26.483 57.42 59.103V59c0 5.691-0.823 11.193-2.32 16.371h43.744c33.45 0 60.602 28.012 60.602 62.411V571.123H246.192v-433.341h0.062z m-95.729 433.342c-31.73 0-57.419-26.453-57.419-59.073v-252.754c0-32.619 25.687-59.073 57.419-59.073 31.698 0 57.42 26.453 57.42 59.073V512.051c0 32.654-25.722 59.103-57.42 59.103v-0.031z m727.261 0c-31.697 0-57.385-26.453-57.385-59.073v-252.754c0-32.619 25.687-59.073 57.385-59.073s57.391 26.453 57.391 59.073V512.051c0 32.654-25.692 59.103-57.391 59.103v-0.031zM645.923 807.632l45.273 69.91c2.925 4.516 1.717 10.653-2.64 13.641-4.448 3.052-10.362 1.809-13.323-2.735l-25.562-39.485-10.773-16.595-10.907-16.854c-34.593 13.797-73.157 21.524-113.853 21.524-40.692 0-79.26-7.758-113.82-21.524l-21.65 33.45-25.625 39.485c-2.926 4.517-8.868 5.754-13.289 2.735-4.355-3.023-5.564-9.125-2.64-13.641l45.274-69.91c-81.2-38.916-136.17-112.708-136.17-197.116h535.843c0 84.407-54.94 158.169-136.14 197.081v0.035zM399.335 689.329c-15.862 0-28.709 13.259-28.709 29.533 0 16.281 12.847 29.506 28.709 29.506 15.835 0 28.709-13.196 28.709-29.506 0-16.31-12.875-29.533-28.709-29.533z m229.672 0c-15.865 0-28.706 13.259-28.706 29.533 0 16.281 12.841 29.506 28.706 29.506 15.869 0 28.678-13.196 28.678-29.506 0-16.31-12.846-29.533-28.678-29.533z m0 0z"  horiz-adv-x="1024" />

    
    <glyph glyph-name="kongjian1" unicode="&#58641;" d="M997.888 496.64c-21.376 28.16-336.384 63.488-336.384 63.488s-100.864 269.696-148.48 258.688c-47.488-10.88-140.928-275.584-140.928-275.584s-333.312-15.872-345.984-61.44c-12.672-45.824 214.4-227.328 214.4-227.328s-84.48-295.040-23.040-325.376c37.888-18.56 282.88 163.072 282.88 163.072s253.952-194.176 314.24-165.504c22.656 10.752-16.256 147.584-46.080 241.024-124.16-3.712-344.96-5.76-483.712 19.2 4.096 19.84 315.264 229.248 315.264 229.248l-329.472 46.080s201.216 46.848 473.344 0c6.144-12.416-301.056-224-297.088-241.024 110.464-20.352 234.624-33.92 317.952-41.728-13.952 43.52-24.96 75.008-24.96 75.008s279.424 214.016 258.048 242.176M861.44 171.52s-38.4 2.56-96.512 7.936l3.84-11.776c56.192 1.664 92.672 3.84 92.672 3.84z"  horiz-adv-x="1024" />

    
    <glyph glyph-name="wen" unicode="&#58954;" d="M583.64416 331.67872c-23.27552-10.12224-35.58912-22.47168-36.67456-45.17888 1.14688 22.60992 13.46048 34.97984 36.67456 45.0816 64.25088 27.96032 107.43296 96.91136 108.3904 164.99712-0.96768-68.06528-44.15488-136.94976-108.3904-164.89984zM42.79296-51.75808c61.40928-20.0704 463.75424-43.04896 631.5008 11.97056 186.20416 61.37856 306.75968 179.22048 339.80416 362.2912 40.96512 226.98496-119.82336 451.1232-362.13248 505.59488C354.1248 895.06304 73.80992 714.32192 38.99904 439.37792c-7.76704-61.3376-1.08544-122.67008 18.27328-182.71232 15.08864-46.79168 22.58432-94.76096 12.17024-143.8208-5.376-25.33888-16.2816-48.03072-33.66912-68.25984-7.36256-8.57088-14.58176-17.3312-20.9408-26.53184-21.85216-31.62112-11.7504-58.2912 27.96032-69.8112z m397.56288 167.10656c0.74752 33.89952 28.69248 60.4416 63.72864 60.53888 34.90816 0.10752 62.22336-26.94144 62.18752-61.55776-0.04096-35.11808-26.68544-61.71136-61.77792-61.6704-38.02112 0.0512-64.94208 26.37824-64.13824 62.68928zM322.47808 505.27744s12.63616 89.34912 40.04352 124.54912c44.84096 57.6 130.16064 80.45568 201.15456 57.43616 7.53152-2.43712 14.03392-7.86432 21.07904-11.2384 60.58496-29.09184 102.2464-92.79488 107.27424-164.64896 0.31232-4.52096 0.256-9.66144 0.18432-14.20288-0.95232-68.08576-44.3136-137.63072-108.5696-165.59104-23.21408-10.10176-35.52768-22.4768-36.67456-45.0816-0.14336-3.18464 0.41472-13.8496 0.41984-15.62112 0.11776-26.20928-15.58016-43.37152-42.41408-45.04064-29.47584-1.83808-44.32384 8.73984-47.17056 36.85376-1.41312 13.96736-0.24576 33.1264-0.24576 33.1264h-0.31232s-0.79872 37.44256 0.16384 51.4816c2.0992 30.6944 16.256 52.224 49.07008 58.20928 56.11008 10.22976 89.25696 51.11296 87.70048 95.3344-0.384 10.22464-2.62144 22.00064-6.85056 32.55296-14.3104 35.67616-50.55488 59.80672-88.44288 57.9584-35.82976-1.74592-72.79616-32.0768-83.77856-69.69344-2.94912-10.10176-5.0176-20.36224-6.69184-30.76096-4.67968-29.14816-14.7968-38.82496-41.69728-36.51584-28.02688 2.41664-44.24192 24.57088-44.24192 50.8928z"  horiz-adv-x="1024" />

    
    <glyph glyph-name="bi" unicode="&#58888;" d="M364.057041 23.851477L68.880275-59.894879l83.743286 295.179836 211.43348-211.43348zM943.071318 602.922035l-71.082942-71.081919L660.557966 743.27155l71.077825 71.080895s33.880645 33.828456 68.316945-0.608867c34.43937-34.440393 101.384062-101.383038 139.099035-139.100058 37.71702-37.71395 4.019547-71.721485 4.019547-71.721485zM850.7077 510.611629L385.09417 45.001169 173.715949 256.379391l465.612506 465.61046 211.379245-211.378222z"  horiz-adv-x="1024" />

    
    <glyph glyph-name="xianlu" unicode="&#58631;" d="M494.111 624.146c-79.329 0-143.714-64.385-143.714-143.714 0-79.329 64.385-143.714 143.714-143.714 79.329 0 143.714 64.385 143.714 143.714 0 79.329-64.385 143.714-143.714 143.714v0zM494.111 400.59c-44.117 0-79.841 35.724-79.841 79.841s35.724 79.841 79.841 79.841c44.117 0 79.841-35.724 79.841-79.841 0-44.117-35.724-79.841-79.841-79.841v0zM494.111 895.606c-229.288 0-415.175-185.887-415.175-415.175 0-68.786 16.685-133.581 46.267-190.698 69.093-133.376 368.908-416.096 368.908-416.096 0 0 299.098 282.208 368.294 415.072 29.889 57.322 46.881 122.628 46.881 191.721 0 229.288-185.887 415.175-415.175 415.175v0zM805.799 311.537c-58.653-113.825-311.688-342.089-311.688-342.089s-253.65 228.674-312.098 343.010c-24.976 48.928-39.204 104.51-39.204 163.47 0 196.532 157.328 355.908 351.302 355.908 193.973 0 351.302-159.376 351.302-355.908 0-59.369-14.33-115.258-39.614-164.391v0z"  horiz-adv-x="1024" />

    
    <glyph glyph-name="windows" unicode="&#59090;" d="M412.224 384.096c-47.712 24.512-94.08 36.96-137.888 36.96-5.952 0-11.936-0.192-17.952-0.704-55.872-4.64-106.912-19.36-139.744-30.816-8.704-3.2-17.632-6.56-26.816-10.304L0 67.84c61.696 22.816 116.288 33.952 166.272 33.952 80.832 0 139.52-30.208 188-61.312 22.976 77.92 78.048 266.08 94.496 322.336a818.56 818.56 0 0 1-36.512 21.312z m116.128-79.168l-90.432-314.144c26.816-15.36 117.088-64.064 186.208-64.064 55.808 0 118.24 14.304 190.848 43.808l86.368 301.984c-58.624-18.912-114.88-28.512-167.456-28.512-95.936 0-163.104 31.104-205.504 60.96z m-235.52 222.272c77.12-0.8 134.144-30.208 181.408-60.512l92.768 317.344c-19.552 11.2-70.816 39.104-107.872 48.608a337.856 337.856 0 0 1-77.216 8.608c-51.808-0.96-108.384-13.952-172.896-39.808l-88.448-310.592c64.8 24.448 120.64 36.352 172.096 36.352h0.128zM1024 697.888c-58.816-22.816-116.192-34.464-171.04-34.464-91.68 0-159.296 31.808-203.104 62.368l-91.936-318.24c61.76-39.712 128.288-59.872 198.112-59.872 56.96 0 115.936 13.664 175.456 40.672l-0.192 2.208 3.744 0.896 88.928 306.432z"  horiz-adv-x="1024" />

    
    <glyph glyph-name="baoming3" unicode="&#58943;" d="M190.231 349.165l155.55 78.724s139.523-166.1 161.117-408.478L387.75-31.936s-159.186 183.333-197.519 381.1zM412.608-46.582l101.738 38.76-19.378-87.2zM1019.738-4.454V771.33c0 87.943-61.703 113.51-95 114.752H67.678v-1.703c-6.082-0.726-12.199-1.932-18.386-4.185-128.937-46.719 63.157-440.356 133.05-510.32l155.142 78.297s-75.338 297.626-185.977 401.6l772.556 0.018c2.412-0.09 59.363-3.122 59.363-78.458l0.034-776.777c0-0.355 1.348-38.157-22.198-62.98-14.608-15.424-36.49-23.26-65.036-23.26H153.494c-3.67 0-90 1.027-90 90.177V162.428H27.18V-1.51c0-100.036 82.624-126.49 126.312-126.49h742.733c38.901 0 69.648 11.632 91.42 34.61 34.538 36.452 32.198 87.73 32.092 88.935zM576.44 632.18h296.524v-72.626H576.439V632.18zM434.186 450.62h435.765v-69.611H434.186v69.61zM582.466 235.76h284.47v-75.638h-284.47V235.76z"  horiz-adv-x="1024" />

    
    <glyph glyph-name="kefu" unicode="&#58897;" d="M510.286 757.171c-155.983 0-282.403-123.767-282.403-276.484 0-152.696 126.42-276.48 282.403-276.48 155.985 0 282.405 123.784 282.405 276.48 0 152.717-126.42 276.484-282.405 276.484zM184.19 374.561V629.81c-3.577 0-7.118-0.146-10.621-0.423C231.441 755.02 360.333 842.511 510.326 842.511c149.994 0 278.888-87.491 336.756-213.124a134.44 134.44 0 0 1-10.62 0.424V374.56c72.03 0 130.462 57.148 130.462 127.624 0 47.864-26.952 89.57-66.808 111.413-56.084 157.976-209.19 271.441-389.79 271.441-180.593 0-333.696-113.458-389.784-271.428-39.868-21.84-66.813-63.553-66.813-111.425 0-70.477 58.39-127.624 130.462-127.624z m607.904-146.33C718.3 160.804 619.23 119.517 510.285 119.517c-108.742 0-207.647 41.135-281.397 108.338C96.897 161.363 10.24 43.01 10.24-117.766h1003.52c0 161.076-88.278 279.57-221.665 345.996z"  horiz-adv-x="1024" />

    
    <glyph glyph-name="taiyang" unicode="&#58627;" d="M511.915 620.373c-130.475 0-236.288-105.813-236.288-236.288 0-130.517 105.813-236.245 236.288-236.245 130.517 0 236.245 105.771 236.245 236.245 0 130.475-105.728 236.288-236.245 236.288zM511.915 738.517c21.76 0 39.381 17.621 39.381 39.339v78.763c0 21.76-17.621 39.381-39.381 39.381s-39.381-17.621-39.381-39.381v-78.763c-0-21.76 17.621-39.339 39.381-39.339zM511.915 29.696c-21.76 0-39.381-17.664-39.381-39.381v-78.763c0-21.803 17.621-39.424 39.381-39.424s39.381 17.621 39.381 39.424v78.763c0 21.717-17.621 39.381-39.381 39.381zM984.405 423.467h-78.763c-21.76 0-39.381-17.621-39.381-39.381s17.621-39.381 39.381-39.381h78.763c21.803 0 39.424 17.621 39.424 39.381 0 21.76-17.621 39.381-39.424 39.381zM157.483 384.085c0 21.76-17.621 39.381-39.381 39.381l-78.72 0c-21.717 0-39.381-17.621-39.381-39.381s17.664-39.381 39.381-39.381h78.763c21.76 0 39.339 17.621 39.339 39.381zM818.219 634.667l55.68 55.68c15.403 15.403 15.403 40.32 0 55.68-15.36 15.36-40.32 15.36-55.68 0l-55.723-55.68c-15.317-15.36-15.317-40.363 0-55.68 15.317-15.36 40.277-15.36 55.723 0zM205.611 133.504l-55.68-55.723c-15.36-15.317-15.36-40.277 0-55.68s40.277-15.403 55.68 0l55.68 55.68c15.36 15.403 15.403 40.363 0 55.723-15.36 15.317-40.277 15.317-55.68 0zM818.219 133.504c-15.403 15.317-40.363 15.317-55.723 0s-15.317-40.277 0-55.723l55.723-55.68c15.317-15.403 40.277-15.403 55.68 0 15.403 15.36 15.403 40.32 0 55.68l-55.68 55.723zM205.611 746.069c-15.403 15.36-40.32 15.36-55.68 0-15.36-15.36-15.36-40.277 0-55.68l55.68-55.68c15.36-15.36 40.32-15.403 55.68 0 15.403 15.317 15.36 40.32 0 55.68l-55.68 55.68z"  horiz-adv-x="1024" />

    
    <glyph glyph-name="huodong1" unicode="&#58684;" d="M902.120107 61.986133zM368.984747 204.997973L245.200213 240.503467l46.851414-174.578347c7.891627-29.590187 37.973333-46.851413 67.560106-38.959787 29.590187 7.891627 46.851413 37.973333 38.9632 67.56352l-29.590186 110.46912z m-159.290027 71.010987v256.44032H89.36448c-40.441173 0-72.000853-34.02752-72.000853-74.46528v-110.465707c0-40.43776 31.563093-71.50592 72.000853-71.50592h120.33024v-0.003413z m724.933973 225.37216v-189.863253c39.45472 11.83744 72.004267 49.810773 72.004267 94.685866 0 45.861547-32.549547 83.83488-72.004267 95.177387zM878.906027 713.9328c-2.46784 0-3.945813-0.498347-6.413654-0.986453l-633.207466-181.48352v-257.426774l632.224426-181.97504c2.46784-0.494933 5.4272-0.986453 7.89504-0.986453 13.312 0 25.644373 10.850987 25.644374 24.65792V689.27488c-0.006827 14.301867-13.32224 24.65792-26.14272 24.65792z"  horiz-adv-x="1024" />

    
    <glyph glyph-name="tuichu" unicode="&#58898;" d="M725.9 175.6l90.2 80.5 143.5 128-143.5 128-90.2 80.5c-20.6 18.4-53.3 3.8-53.3-23.9v-120.9c-1.8 0.2-3.7 0.3-5.5 0.3H322.7c-35.2 0-64-28.8-64-64s28.8-64 64-64H667c1.9 0 3.7 0.1 5.5 0.3v-120.9c0.1-27.7 32.7-42.3 53.4-23.9zM128 64.4V704c0 35.2 28.8 64 64 64h641.1V798c0 35.2-28.8 34.1-64 34.1H129.3c-35.2 0-64-28.8-64-64v-765.9c0-35.2 28.8-64 64-64h639.8c35.2 0 64-4.9 64 30.3v31.8H192c-35.2 0.1-64 28.9-64 64.1z"  horiz-adv-x="1024" />

    
    <glyph glyph-name="huidaodingbu" unicode="&#58899;" d="M511.281 617.573L170.831 288.51H364.05l-1.688-269.464h297V289.353l198.281 2.531zM144.926 751.758h732.711V643.73H144.926V751.758z"  horiz-adv-x="1024" />

    
    <glyph glyph-name="mianfei1" unicode="&#59722;" d="M501.76 877.056c66.56 0 131.072-12.8 192-38.912 58.88-25.088 111.616-60.416 156.672-105.472s80.896-97.792 105.472-156.672c25.6-60.928 38.912-125.44 38.912-192s-12.8-131.072-38.912-192c-25.088-58.88-60.416-111.616-105.472-156.672s-97.792-80.896-156.672-105.472c-60.928-25.6-125.44-38.912-192-38.912s-131.072 12.8-192 38.912c-58.88 25.088-111.616 60.416-156.672 105.472s-80.896 97.792-105.472 156.672c-25.6 60.928-38.912 125.44-38.912 192s12.8 131.072 38.912 192c25.088 58.88 60.416 111.616 105.472 156.672s97.792 80.896 156.672 105.472c60.928 26.112 125.44 38.912 192 38.912m-404.48-697.344l9.728 5.632 182.272 102.912 3.072 1.536 1.536 3.072c3.072 7.68 10.24 12.288 18.432 12.288h7.68l2.56 1.536 108.544 61.44 33.792 18.944H343.04c-9.728 0-18.432 6.656-19.968 15.872-2.56 12.8 7.168 24.064 19.456 24.064h140.8l-17.408 17.408-116.736 116.736c-3.072 3.072-5.632 7.68-6.144 12.288-1.024 6.144 1.536 12.288 5.632 16.896 4.608 4.608 10.24 6.656 16.896 5.632 4.608-0.512 8.704-3.072 12.288-6.144L491.52 476.16l7.168-7.168 7.168 7.168 113.664 113.664c3.072 3.072 7.68 5.632 12.288 6.144 6.144 1.024 12.288-1.536 16.896-5.632 4.608-4.608 6.656-10.24 5.632-16.896-0.512-4.608-3.072-8.704-6.144-12.288l-132.608-134.144h20.48l15.872 8.704 324.608 183.296 9.728 5.632-6.144 9.216c-16.896 25.088-35.84 48.64-57.344 70.144-41.472 41.472-90.112 74.24-143.872 97.28-55.808 23.552-115.2 35.84-176.128 35.84-60.928 0-120.32-11.776-176.128-35.84-53.76-23.04-102.4-55.296-143.872-97.28-41.472-41.472-74.24-90.112-97.28-143.872-23.552-55.808-35.84-115.2-35.84-176.128 0-60.928 11.776-120.32 35.84-176.128 2.56-5.632 5.12-11.776 8.192-17.92l3.584-10.24m519.68 247.296h43.52c11.264 0 19.968-9.216 19.968-19.968s-9.216-19.968-19.968-19.968h-114.176l-2.56-1.536-17.408-9.728-5.12-3.072V304.64h167.936c11.264 0 19.968-9.216 19.968-19.968s-9.216-19.968-19.968-19.968h-167.936v-132.608c0-11.264-9.216-19.968-19.968-19.968-11.264 0-19.968 9.216-19.968 19.968v132.608h-150.528l-2.56-1.536-201.728-114.176-9.728-5.632 6.144-9.216c16.896-25.6 36.864-50.176 58.368-71.68 41.472-41.472 90.112-74.24 143.872-97.28 55.808-23.552 115.2-35.84 176.128-35.84 60.928 0 120.32 11.776 176.128 35.84 53.76 23.04 102.4 55.296 143.872 97.28 41.472 41.472 74.24 90.112 97.28 143.872 23.552 55.808 35.84 115.2 35.84 176.128 0 60.928-11.776 120.32-35.84 176.128-3.072 6.656-5.632 13.312-9.216 19.968l-4.608 9.728-9.728-5.632-245.248-138.24-32.768-17.408m-215.552-121.856h79.872v45.056l-15.36-8.704-30.72-17.408-33.792-18.944"  horiz-adv-x="1024" />

    
    <glyph glyph-name="danquxunhuan" unicode="&#58959;" d="M798.647 128.941l-133.918 86.627c-7.937 5.14-16.02 7.755-24.045 7.755-17.984 0-36.196-14.7-36.196-42.768v-38.652H392.366c-126.614 0-229.622 107.581-229.622 239.798 0 47.784 13.597 93.995 39.324 133.676 15.496 23.904 9.521 56.382-13.36 72.565-22.879 16.15-53.996 9.912-69.477-13.963C82.24 516.95 62.68 450.448 62.68 381.701c0-189.857 147.903-344.287 329.686-344.287h212.122v-38.924c0-29.189 18.522-42.489 35.733-42.489 8.205 0 16.452 2.773 24.535 8.224l134.562 90.737c13.437 9.063 21.072 22.645 20.938 37.223-0.147 14.577-8.021 27.973-21.609 36.756zM631.646 730.595H419.529V769.514C419.529 798.7 401.003 812 383.791 812c-8.203 0-16.45-2.769-24.535-8.222l-134.56-90.74c-13.439-9.063-21.075-22.643-20.94-37.223 0.15-14.578 8.025-27.97 21.614-36.754l133.918-86.626c7.933-5.14 16.018-7.755 24.041-7.755 17.989 0 36.2 14.702 36.2 42.768V626.105h212.117c126.616 0 229.612-107.581 229.612-239.798 0-47.812-13.6-94.022-39.312-133.672-15.496-23.908-9.493-56.386 13.373-72.569 8.598-6.063 18.37-8.977 28.004-8.977 16.054 0 31.8 8.046 41.486 22.945 36.968 56.998 56.511 123.498 56.511 192.273 0 189.856-147.89 344.288-329.674 344.288zM577.004 549.762v-331.525h-54.321V484.306c-19.974-18.096-45.062-31.563-75.686-40.401v53.867c14.859 3.723 30.624 10.23 47.361 19.488 16.704 10.23 30.624 20.912 41.793 32.502h40.853z"  horiz-adv-x="1024" />

    
    <glyph glyph-name="xuanfuceng-fanhuidingbu-icon" unicode="&#58990;" d="M515.988101 87.495111a21.541926 21.541926 0 0 1-21.352297-21.731555v-157.620149a21.541926 21.541926 0 0 1 21.428149-21.693629 21.617778 21.617778 0 0 1 21.428148 21.693629v157.620149a21.655704 21.655704 0 0 1-21.504 21.731555zM438.770916 92.99437a21.31437 21.31437 0 0 1-21.124741-21.466074v-106.002963a21.276444 21.276444 0 0 1 21.124741-21.428148 21.238519 21.238519 0 0 1 21.086814 21.466074v105.965037a21.276444 21.276444 0 0 1-21.086814 21.466074zM761.520545 463.492741C765.995804 754.953481 528.427804 887.011556 512.498916 895.582815V896L512.043804 895.81037 511.626619 896v-0.417185c-15.966815-8.571259-253.572741-140.629333-249.059555-432.090074-48.355556-31.55437-99.062519-87.646815-90.984297-184.69926 8.040296-96.976593 101.338074-161.298963 137.064297-157.809777 35.726222 3.489185 25.334519 30.416593 25.334518 30.416592l12.250074 50.251852s52.641185-80.820148 69.518223-80.782222c15.17037 1.251556 87.305481 0.113778 95.914666 0h0.834371c8.647111 0.113778 80.744296 1.251556 95.914666 0 16.839111 0 69.518222 80.782222 69.518222 80.782222l12.212149-50.251852s-10.353778-26.927407 25.372444-30.416592c35.726222-3.489185 128.986074 60.833185 137.064296 157.809777 8.00237 97.014519-42.666667 153.144889-91.060148 184.69926zM512.043804 467.77837c-6.788741 0.113778-95.080296 3.375407-103.23437 107.557926C411.767656 674.360889 505.10336 683.121778 512.043804 683.614815c6.97837-0.493037 100.276148-9.253926 103.234371-108.278519-8.154074-104.182519-96.483556-107.444148-103.234371-107.557926zM587.706027 87.457185a21.238519 21.238519 0 0 1-21.086815-21.352296v-75.624296a21.31437 21.31437 0 0 1 21.086815-21.428149 21.238519 21.238519 0 0 1 21.12474 21.428149v75.624296a21.238519 21.238519 0 0 1-21.12474 21.352296z"  horiz-adv-x="1024" />

    
    </font>
</defs>
</svg>
